<?xml version="1.0" encoding="UTF-8"?>
<!DOCTYPE svg PUBLIC "-//W3C//DTD SVG 1.1//EN" "http://www.w3.org/Graphics/SVG/1.1/DTD/svg11.dtd">
<!-- Creator: CorelDRAW X7 -->
<svg xmlns="http://www.w3.org/2000/svg" xml:space="preserve" width="93.2143mm" height="9.8738mm" version="1.1" style="shape-rendering:geometricPrecision; text-rendering:geometricPrecision; image-rendering:optimizeQuality; fill-rule:evenodd; clip-rule:evenodd"
viewBox="0 0 4636 491"
 xmlns:xlink="http://www.w3.org/1999/xlink">
 <defs>
  <style type="text/css">
   <![CDATA[
    .fil0 {fill:#34302F;fill-rule:nonzero}
   ]]>
  </style>
 </defs>
 <g id="Layer_x0020_1">
  <metadata id="CorelCorpID_0Corel-Layer"/>
  <path class="fil0" d="M66 289c0,1 0,2 0,3 0,1 0,2 0,2 -1,1 -1,1 -1,2 0,0 -1,1 -1,1 -1,1 -2,1 -3,2 -1,1 -3,2 -5,3 -2,0 -5,1 -7,2 -3,0 -6,0 -9,0 -6,0 -12,-1 -17,-2 -5,-2 -9,-5 -12,-9 -4,-4 -6,-8 -8,-14 -2,-6 -3,-12 -3,-20 0,-8 1,-14 3,-20 2,-6 5,-11 9,-15 3,-4 8,-7 13,-9 5,-2 10,-4 16,-4 3,0 5,1 8,1 2,1 4,1 6,2 2,0 4,1 5,2 2,1 3,2 3,2 1,1 1,1 2,2 0,0 0,1 0,1 0,1 1,2 1,3 0,1 0,2 0,3 0,1 0,3 0,4 -1,1 -1,1 -1,2 0,1 0,1 -1,1 0,1 0,1 -1,1 -1,0 -1,-1 -2,-2 -2,0 -3,-1 -5,-2 -1,-1 -3,-2 -6,-3 -2,-1 -5,-1 -8,-1 -3,0 -7,1 -9,2 -3,1 -6,4 -7,6 -2,3 -4,6 -5,10 -1,4 -1,8 -1,13 0,5 0,10 1,14 1,4 3,7 5,9 2,3 4,5 7,6 3,1 6,2 10,2 3,0 6,-1 8,-1 2,-1 4,-2 6,-3 2,-1 3,-2 4,-2 1,-1 2,-1 3,-1 0,0 0,0 1,0 0,0 0,0 0,1 1,1 1,1 1,2 0,1 0,3 0,4z"/>
  <path class="fil0" d="M92 301c0,0 0,0 -1,1 0,0 0,0 -1,1 -1,0 -2,0 -3,0 -1,0 -2,0 -4,0 -2,0 -3,0 -4,0 -1,0 -2,0 -3,0 0,-1 -1,-1 -1,-1 0,-1 -1,-1 -1,-1l0 -62c0,-1 1,-1 1,-2 0,0 1,0 1,0 1,-1 2,-1 3,-1 1,0 2,0 4,0 2,0 3,0 4,0 1,0 2,0 3,1 1,0 1,0 1,0 1,1 1,1 1,2l0 62zm1 -84c0,4 -1,6 -2,8 -1,1 -4,2 -8,2 -4,0 -6,-1 -8,-2 -1,-1 -2,-4 -2,-7 0,-4 1,-6 2,-8 2,-1 4,-2 8,-2 4,0 7,1 8,2 1,2 2,4 2,7z"/>
  <path class="fil0" d="M149 270c0,-3 0,-5 0,-8 -1,-2 -1,-4 -2,-6 -1,-2 -2,-4 -4,-5 -1,-1 -3,-2 -6,-2 -1,0 -2,1 -3,1 -1,0 -2,1 -4,2 -1,0 -2,2 -3,3 -1,1 -3,3 -4,4l0 21c2,3 5,5 7,7 2,2 4,3 7,3 2,0 4,-1 6,-2 1,-1 2,-3 3,-5 1,-2 2,-4 3,-6 0,-2 0,-5 0,-7zm18 -1c0,5 0,10 -1,15 -1,4 -3,8 -5,11 -3,3 -5,5 -9,7 -3,2 -7,2 -11,2 -2,0 -4,0 -5,0 -2,0 -3,-1 -5,-2 -1,0 -2,-1 -4,-2 -1,-1 -3,-3 -4,-4l0 29c0,1 0,1 0,1 -1,1 -1,1 -2,1 -1,1 -1,1 -3,1 -1,0 -2,0 -4,0 -1,0 -3,0 -4,0 -1,0 -2,0 -3,-1 0,0 -1,0 -1,-1 0,0 0,0 0,-1l0 -86c0,-1 0,-1 0,-2 0,0 1,0 1,-1 1,0 1,0 2,0 1,0 3,0 4,0 1,0 2,0 3,0 1,0 2,0 3,0 0,1 1,1 1,1 0,1 0,1 0,2l0 7c2,-2 4,-4 6,-5 1,-1 3,-3 5,-4 2,-1 3,-1 5,-2 2,0 4,0 6,0 5,0 9,0 12,2 3,2 6,4 8,8 2,3 3,6 4,10 1,5 1,9 1,14z"/>
  <path class="fil0" d="M195 301c0,0 0,0 0,1 -1,0 -1,0 -2,1 0,0 -1,0 -2,0 -1,0 -3,0 -5,0 -1,0 -3,0 -4,0 -1,0 -2,0 -2,0 -1,-1 -2,-1 -2,-1 0,-1 0,-1 0,-1l0 -92c0,0 0,-1 0,-1 0,-1 1,-1 2,-1 0,0 1,-1 2,-1 1,0 3,0 4,0 2,0 4,0 5,0 1,0 2,1 2,1 1,0 1,0 2,1 0,0 0,1 0,1l0 92z"/>
  <path class="fil0" d="M244 274l-6 0c-3,0 -6,0 -8,1 -1,0 -3,1 -4,2 -2,1 -2,2 -3,3 -1,1 -1,2 -1,4 0,2 1,4 3,6 1,1 3,2 6,2 3,0 5,0 7,-2 2,-1 4,-3 6,-5l0 -11zm17 27c0,0 0,1 0,1 -1,1 -2,1 -3,1 -1,0 -2,0 -4,0 -2,0 -3,0 -4,0 -1,0 -2,0 -2,-1 -1,0 -1,-1 -1,-1l0 -5c-3,3 -5,5 -9,6 -3,2 -6,2 -10,2 -4,0 -7,0 -9,-1 -3,-1 -6,-2 -8,-4 -2,-1 -3,-3 -4,-6 -1,-2 -2,-5 -2,-9 0,-3 1,-6 2,-9 2,-3 4,-5 7,-7 2,-1 6,-3 10,-4 4,0 9,-1 14,-1l6 0 0 -4c0,-2 0,-3 0,-5 -1,-1 -1,-2 -2,-3 -1,-1 -2,-2 -4,-2 -1,-1 -3,-1 -5,-1 -3,0 -6,0 -8,1 -2,0 -4,1 -6,2 -2,1 -3,1 -5,2 -1,1 -2,1 -2,1 -1,0 -1,0 -2,0 0,-1 0,-1 -1,-2 0,0 0,-1 0,-2 0,-1 0,-2 0,-3 0,-1 0,-3 0,-3 0,-1 1,-2 1,-3 1,0 2,-1 4,-2 1,-1 3,-1 5,-2 2,-1 5,-1 7,-2 3,0 5,0 8,0 5,0 9,0 13,1 3,1 6,2 8,4 2,2 4,5 5,8 1,3 1,7 1,11l0 42z"/>
  <path class="fil0" d="M353 295c0,2 0,3 0,4 0,1 0,2 0,2 0,1 -1,1 -1,1 0,1 -1,1 -1,1l-41 0c-2,0 -3,-1 -4,-1 -1,-1 -2,-3 -2,-5l0 -82c0,0 1,0 1,-1 0,0 1,-1 1,-1 1,0 2,0 3,0 1,0 3,-1 5,-1 1,0 3,1 4,1 1,0 2,0 3,0 0,0 1,1 1,1 1,1 1,1 1,1l0 73 28 0c0,0 1,0 1,0 0,0 1,1 1,1 0,1 0,2 0,3 0,1 0,2 0,3z"/>
  <path class="fil0" d="M396 294c0,2 0,4 0,5 -1,1 -1,2 -1,2 -1,1 -1,1 -2,2 -1,0 -2,0 -3,0 -1,1 -2,1 -4,1 -1,0 -2,0 -3,0 -4,0 -7,0 -9,-1 -3,-1 -5,-2 -7,-4 -1,-2 -2,-4 -3,-7 -1,-3 -1,-6 -1,-10l0 -32 -8 0c-1,0 -1,0 -2,-1 0,-1 0,-3 0,-6 0,-1 0,-2 0,-3 0,-1 0,-2 0,-2 0,-1 1,-1 1,-2 0,0 1,0 1,0l8 0 0 -14c0,0 0,-1 0,-1 0,0 1,-1 1,-1 1,0 2,0 3,0 1,-1 3,-1 4,-1 2,0 3,0 4,1 2,0 2,0 3,0 1,0 1,1 1,1 1,0 1,1 1,1l0 14 13 0c1,0 1,0 1,0 1,1 1,1 1,2 1,0 1,1 1,2 0,1 0,2 0,3 0,3 0,5 -1,6 0,1 -1,1 -2,1l-13 0 0 29c0,4 0,6 1,8 1,2 3,3 6,3 1,0 2,0 3,-1 0,0 1,0 2,0 0,0 1,-1 1,-1 0,0 1,0 1,0 0,0 1,0 1,0 0,0 0,1 0,1 1,1 1,1 1,2 0,1 0,2 0,3z"/>
  <path class="fil0" d="M446 259c-2,-3 -5,-5 -7,-7 -2,-2 -5,-3 -7,-3 -2,0 -4,1 -6,2 -2,1 -3,3 -4,5 -1,2 -2,4 -2,6 -1,2 -1,5 -1,7 0,3 0,5 1,8 0,2 1,4 2,6 1,2 2,4 4,5 1,1 3,2 5,2 2,0 3,0 4,-1 1,0 2,-1 3,-1 2,-1 3,-2 4,-4 1,-1 3,-2 4,-4l0 -21zm17 42c0,0 0,0 0,1 0,0 -1,0 -1,1 -1,0 -1,0 -2,0 -1,0 -3,0 -4,0 -1,0 -3,0 -4,0 0,0 -1,0 -2,0 0,-1 -1,-1 -1,-1 0,-1 0,-1 0,-1l0 -7c-4,3 -7,6 -10,8 -4,2 -8,2 -12,2 -5,0 -8,0 -12,-2 -3,-2 -6,-5 -8,-8 -2,-3 -3,-6 -4,-11 -1,-4 -2,-8 -2,-13 0,-5 1,-10 2,-15 1,-4 3,-8 5,-11 3,-3 5,-5 9,-7 3,-2 7,-2 11,-2 4,0 7,0 10,2 3,1 5,3 8,6l0 -34c0,0 0,-1 0,-1 1,0 1,-1 2,-1 0,0 1,0 3,0 1,-1 2,-1 4,-1 1,0 3,0 4,1 1,0 2,0 3,0 0,0 1,1 1,1 0,0 0,1 0,1l0 92z"/>
  <path class="fil0" d="M498 293c0,4 -1,7 -3,9 -1,1 -4,2 -8,2 -3,0 -6,-1 -8,-2 -1,-2 -2,-5 -2,-9 0,-4 1,-7 2,-8 2,-2 5,-3 9,-3 3,0 6,1 7,2 2,2 3,5 3,9z"/>
  <path class="fil0" d="M584 239c0,-2 -1,-5 -2,-7 -2,-2 -4,-3 -7,-4 -1,-1 -2,-1 -3,-1 -1,0 -3,0 -5,0l-8 0 0 25 9 0c3,0 5,0 7,-1 2,0 3,-1 5,-2 1,-1 2,-3 3,-4 0,-2 1,-4 1,-6zm23 62c0,0 0,0 0,1 0,0 -1,0 -2,1 0,0 -1,0 -3,0 -1,0 -3,0 -5,0 -2,0 -4,0 -5,0 -1,0 -2,0 -2,0 -1,-1 -2,-1 -2,-1 0,-1 0,-1 -1,-2l-7 -20c-2,-2 -2,-4 -3,-6 -1,-2 -2,-3 -3,-4 -2,-1 -3,-2 -4,-3 -2,-1 -3,-1 -5,-1l-6 0 0 34c0,1 0,1 0,2 -1,0 -1,0 -2,1 -1,0 -2,0 -3,0 -1,0 -2,0 -4,0 -2,0 -3,0 -5,0 -1,0 -2,0 -2,0 -1,-1 -1,-1 -2,-1 0,-1 0,-1 0,-2l0 -81c0,-2 0,-4 1,-5 1,-1 3,-1 4,-1l23 0c3,0 5,0 6,0 2,0 3,0 4,0 4,1 7,2 10,3 3,1 5,3 7,5 2,2 4,4 5,7 1,3 1,6 1,10 0,3 0,5 -1,8 -1,2 -2,5 -3,6 -2,2 -3,4 -6,6 -2,1 -4,2 -7,3 1,1 3,1 4,2 1,1 2,2 3,4 1,1 2,3 3,4 1,2 2,4 3,6l7 18c1,2 1,3 2,4 0,0 0,1 0,2z"/>
  <path class="fil0" d="M656 263c0,-5 -1,-9 -3,-12 -2,-3 -6,-4 -10,-4 -2,0 -4,0 -6,1 -1,1 -3,2 -4,4 -1,1 -2,3 -2,5 -1,1 -1,4 -1,6l26 0zm17 5c0,2 -1,3 -2,4 -1,1 -2,2 -4,2l-37 0c0,3 0,5 1,7 0,2 1,4 3,6 1,1 3,2 5,3 2,1 5,1 8,1 3,0 5,0 8,0 2,-1 4,-1 6,-2 1,0 3,-1 4,-1 1,-1 2,-1 2,-1 1,0 1,0 1,0 1,0 1,1 1,1 0,1 0,1 1,2 0,1 0,2 0,3 0,1 0,2 0,2 0,1 -1,2 -1,2 0,1 0,1 0,2 0,0 0,0 -1,1 0,0 -1,0 -2,1 -2,0 -3,1 -5,2 -2,0 -5,1 -7,1 -3,0 -6,0 -9,0 -5,0 -10,0 -14,-2 -4,-1 -8,-3 -11,-6 -2,-3 -4,-6 -6,-11 -1,-4 -2,-9 -2,-15 0,-5 1,-10 2,-15 2,-4 4,-8 6,-11 3,-3 6,-5 10,-7 4,-2 9,-2 14,-2 5,0 9,0 13,2 3,1 6,3 9,6 2,3 4,6 5,10 1,4 2,8 2,12l0 3z"/>
  <path class="fil0" d="M716 257c0,-3 -1,-5 -2,-7 -2,-2 -5,-3 -8,-3 -2,0 -3,0 -5,1 -1,0 -2,1 -3,2 -1,1 -1,2 -2,4 0,1 0,2 0,4 0,3 1,5 2,7 2,2 5,3 8,3 2,0 3,0 5,-1 1,0 2,-1 3,-2 1,-1 1,-2 2,-4 0,-1 0,-2 0,-4zm4 50c0,-2 0,-4 -2,-5 -2,-1 -4,-1 -7,-2l-12 0c-1,1 -2,2 -3,3 -1,0 -1,1 -2,2 0,1 -1,1 -1,2 0,1 0,2 0,2 0,3 1,4 4,5 2,2 5,2 9,2 3,0 5,0 7,0 2,-1 3,-2 4,-3 2,0 2,-1 3,-3 0,-1 0,-2 0,-3zm19 -64c0,2 -1,4 -1,5 -1,1 -1,1 -2,1l-7 0c1,1 2,3 2,4 0,2 1,3 1,5 0,3 -1,6 -2,9 -1,3 -3,5 -5,7 -3,2 -5,4 -8,5 -4,1 -7,1 -11,1 -2,0 -4,0 -6,-1 -1,0 -3,-1 -4,-1 0,0 -1,1 -1,2 -1,1 -1,2 -1,3 0,1 1,2 2,3 1,1 3,1 5,1l15 1c3,0 6,1 9,1 3,1 5,3 7,4 2,2 3,4 4,6 1,2 2,4 2,7 0,3 -1,6 -2,9 -1,2 -3,5 -6,7 -3,2 -6,3 -10,5 -4,1 -9,1 -14,1 -6,0 -10,0 -14,-1 -3,-1 -6,-2 -9,-3 -2,-2 -4,-4 -5,-6 -1,-2 -2,-4 -2,-7 0,-1 1,-3 1,-4 0,-1 1,-3 2,-4 0,-1 1,-2 3,-4 1,-1 2,-2 3,-3 -2,-1 -3,-2 -4,-4 -1,-2 -2,-4 -2,-6 0,-3 1,-6 2,-8 1,-2 3,-4 5,-6 -2,-1 -3,-3 -4,-6 -1,-2 -1,-5 -1,-8 0,-4 0,-7 1,-10 2,-3 3,-5 6,-7 2,-2 5,-4 8,-5 3,-1 6,-1 10,-1 2,0 4,0 6,0 1,0 3,1 5,1l19 0c1,0 1,1 2,2 0,1 1,2 1,5z"/>
  <path class="fil0" d="M788 259c-3,-3 -5,-5 -7,-7 -3,-2 -5,-3 -8,-3 -2,0 -4,1 -5,2 -2,1 -3,3 -4,5 -1,2 -2,4 -3,6 0,2 0,5 0,7 0,3 0,5 0,8 1,2 1,4 2,6 1,2 3,4 4,5 2,1 4,2 6,2 1,0 2,0 4,-1 1,0 2,-1 3,-1 1,-1 2,-2 4,-4 1,-1 2,-2 4,-4l0 -21zm17 42c0,0 0,0 0,1 -1,0 -1,0 -2,1 0,0 -1,0 -2,0 -1,0 -2,0 -3,0 -2,0 -3,0 -4,0 -1,0 -2,0 -2,0 -1,-1 -1,-1 -1,-1 -1,-1 -1,-1 -1,-1l0 -7c-3,3 -6,6 -10,8 -3,2 -7,2 -11,2 -5,0 -9,0 -12,-2 -3,-2 -6,-5 -8,-8 -2,-3 -4,-6 -4,-11 -1,-4 -2,-8 -2,-13 0,-5 1,-10 2,-15 1,-4 3,-8 5,-11 2,-3 5,-5 8,-7 4,-2 8,-2 12,-2 3,0 7,0 9,2 3,1 6,3 9,6l0 -34c0,0 0,-1 0,-1 0,0 1,-1 1,-1 1,0 2,0 3,0 1,-1 3,-1 4,-1 2,0 3,0 5,1 1,0 2,0 2,0 1,0 1,1 2,1 0,0 0,1 0,1l0 92z"/>
  <path class="fil0" d="M839 293c0,4 0,7 -2,9 -1,1 -4,2 -8,2 -4,0 -7,-1 -8,-2 -1,-2 -2,-5 -2,-9 0,-4 1,-7 2,-8 2,-2 4,-3 8,-3 4,0 7,1 8,2 2,2 2,5 2,9z"/>
  <path class="fil0" d="M944 258c0,-5 -1,-9 -1,-13 -1,-4 -2,-7 -4,-10 -2,-3 -4,-5 -7,-6 -3,-2 -7,-3 -11,-3 -5,0 -8,1 -11,3 -3,2 -6,4 -8,7 -2,2 -3,6 -4,10 0,3 -1,7 -1,12 0,4 1,9 1,13 1,4 2,7 4,10 2,3 4,5 7,6 3,2 7,2 11,2 5,0 8,0 11,-2 3,-2 6,-4 8,-7 1,-3 3,-6 4,-10 0,-4 1,-8 1,-12zm19 -1c0,7 -1,14 -3,20 -2,6 -5,11 -8,15 -4,4 -8,7 -14,9 -5,2 -11,3 -18,3 -7,0 -13,0 -19,-2 -5,-2 -9,-5 -12,-9 -4,-3 -6,-8 -8,-14 -2,-6 -3,-13 -3,-21 0,-7 1,-13 3,-19 2,-6 5,-11 8,-15 4,-4 8,-7 14,-9 5,-3 11,-4 18,-4 7,0 13,1 18,3 5,2 10,5 13,8 4,4 6,9 8,15 2,5 3,12 3,20z"/>
  <path class="fil0" d="M1076 218c0,1 0,3 -1,4 0,1 -1,2 -1,3 -1,1 -2,1 -3,1 -2,1 -3,1 -5,1 -2,0 -4,0 -5,-1 -1,0 -2,0 -3,-1 -1,-1 -1,-2 -2,-3 0,-1 0,-3 0,-4 0,-2 0,-3 0,-5 1,-1 1,-2 2,-2 1,-1 2,-2 3,-2 1,0 3,-1 5,-1 2,0 3,1 5,1 1,0 2,1 3,2 0,0 1,1 1,2 1,2 1,3 1,5zm-2 83c0,0 0,0 0,1 0,0 -1,0 -1,1 -1,0 -2,0 -3,0 -1,0 -3,0 -4,0 -2,0 -3,0 -5,0 -1,0 -2,0 -2,0 -1,-1 -1,-1 -2,-1 0,-1 0,-1 0,-1l0 -51 -23 0 0 51c0,0 0,0 0,1 -1,0 -1,0 -2,1 0,0 -1,0 -2,0 -1,0 -3,0 -4,0 -2,0 -4,0 -5,0 -1,0 -2,0 -2,0 -1,-1 -1,-1 -2,-1 0,-1 0,-1 0,-1l0 -51 -23 0 0 51c0,0 0,0 0,1 -1,0 -1,0 -2,1 0,0 -1,0 -2,0 -2,0 -3,0 -5,0 -1,0 -3,0 -4,0 -1,0 -2,0 -3,0 0,-1 -1,-1 -1,-1 0,-1 0,-1 0,-1l0 -51 -8 0c-1,0 -2,0 -2,-1 0,-1 -1,-3 -1,-6 0,-1 0,-2 1,-3 0,-1 0,-2 0,-2 0,-1 1,-1 1,-2 0,0 1,0 1,0l8 0 0 -4c0,-5 0,-8 1,-11 1,-4 2,-6 4,-8 2,-2 4,-4 7,-5 2,-1 5,-2 9,-2 2,0 4,0 6,1 1,0 2,0 3,1 1,0 2,0 2,1 0,0 1,0 1,1 0,1 0,1 0,2 0,1 0,2 0,4 0,2 0,3 0,4 0,1 -1,2 -2,2 0,0 0,0 -1,0 0,-1 -1,-1 -1,-1 -1,0 -1,0 -2,0 -1,-1 -2,-1 -3,-1 -2,0 -4,1 -5,3 -1,2 -2,4 -2,8l0 5 23 0 0 -5c0,-5 0,-8 1,-11 1,-4 2,-6 4,-8 2,-2 4,-4 7,-5 2,-1 5,-2 9,-2 1,0 2,0 3,1 1,0 2,0 3,0 1,0 2,0 3,1 0,0 1,0 1,0 0,1 0,1 1,1 0,1 0,1 0,1 0,1 0,2 0,2 0,1 0,2 0,3 0,3 0,4 0,5 0,1 -1,1 -2,1 0,0 0,0 -1,0 0,0 0,0 -1,0 0,0 -1,0 -1,0 -1,0 -2,-1 -3,-1 -2,0 -4,1 -5,3 -1,2 -2,4 -2,8l0 6 35 0c2,0 3,1 4,1 1,1 1,2 1,4l0 60z"/>
  <path class="fil0" d="M1135 291c0,1 0,2 0,3 0,1 -1,1 -1,2 0,0 0,1 0,1 0,0 -1,1 -1,1 -1,1 -2,2 -3,2 -1,1 -3,2 -4,2 -2,1 -4,1 -6,2 -2,0 -4,0 -6,0 -5,0 -9,0 -13,-2 -3,-1 -6,-3 -9,-6 -2,-3 -4,-7 -6,-11 -1,-4 -2,-9 -2,-14 0,-6 1,-12 3,-16 1,-5 3,-9 6,-12 3,-3 6,-5 10,-6 4,-2 8,-2 12,-2 2,0 4,0 6,0 2,0 3,1 5,1 1,1 3,2 4,2 1,1 2,2 3,2 0,1 0,1 1,1 0,1 0,1 0,2 0,0 0,1 0,2 0,1 0,2 0,3 0,2 0,4 0,5 -1,2 -1,2 -2,2 -1,0 -2,0 -2,-1 -1,-1 -2,-1 -4,-2 -1,-1 -2,-2 -4,-2 -2,-1 -4,-1 -6,-1 -4,0 -8,2 -10,5 -3,4 -4,9 -4,15 0,4 1,7 1,9 1,3 2,5 3,7 1,1 2,3 4,4 2,0 4,1 6,1 3,0 5,-1 7,-1 1,-1 3,-2 4,-3 1,-1 2,-1 3,-2 1,-1 2,-1 3,-1 0,0 0,0 1,0 0,0 0,1 0,1 0,1 1,2 1,3 0,1 0,2 0,4z"/>
  <path class="fil0" d="M1184 263c0,-5 -1,-9 -3,-12 -2,-3 -6,-4 -10,-4 -2,0 -4,0 -6,1 -1,1 -3,2 -4,4 -1,1 -2,3 -2,5 -1,1 -1,4 -1,6l26 0zm17 5c0,2 -1,3 -2,4 -1,1 -2,2 -4,2l-37 0c0,3 0,5 1,7 0,2 1,4 3,6 1,1 3,2 5,3 2,1 5,1 8,1 3,0 5,0 8,0 2,-1 4,-1 6,-2 1,0 3,-1 4,-1 1,-1 2,-1 2,-1 1,0 1,0 1,0 1,0 1,1 1,1 0,1 0,1 1,2 0,1 0,2 0,3 0,1 0,2 0,2 0,1 -1,2 -1,2 0,1 0,1 0,2 0,0 0,0 -1,1 0,0 -1,0 -2,1 -2,0 -3,1 -5,2 -2,0 -5,1 -7,1 -3,0 -6,0 -9,0 -5,0 -10,0 -14,-2 -4,-1 -8,-3 -11,-6 -2,-3 -4,-6 -6,-11 -1,-4 -2,-9 -2,-15 0,-5 1,-10 2,-15 2,-4 4,-8 7,-11 2,-3 6,-5 9,-7 4,-2 9,-2 14,-2 5,0 9,0 13,2 3,1 6,3 9,6 2,3 4,6 5,10 1,4 2,8 2,12l0 3z"/>
  <path class="fil0" d="M1233 293c0,2 0,4 0,5 -1,2 -1,3 -2,4 -1,0 -2,1 -3,1 -1,1 -3,1 -5,1 -2,0 -3,0 -4,-1 -2,0 -3,-1 -3,-1 -1,-1 -2,-2 -2,-4 0,-1 0,-3 0,-5 0,-2 0,-3 0,-5 0,-1 1,-2 2,-3 0,-1 1,-1 3,-2 1,0 2,0 4,0 2,0 4,0 5,0 1,1 2,1 3,2 1,1 1,2 2,3 0,2 0,3 0,5zm0 -45c0,2 0,4 0,5 -1,1 -1,2 -2,3 -1,1 -2,1 -3,2 -1,0 -3,0 -5,0 -2,0 -3,0 -4,0 -2,-1 -3,-1 -3,-2 -1,-1 -2,-2 -2,-3 0,-1 0,-3 0,-5 0,-2 0,-4 0,-5 0,-1 1,-3 2,-3 0,-1 1,-2 3,-2 1,0 2,-1 4,-1 2,0 4,1 5,1 1,0 2,1 3,2 1,0 1,2 2,3 0,1 0,3 0,5z"/>
  <path class="fil0" d="M1338 290c0,1 0,2 0,2 0,1 0,1 -1,2 0,0 0,0 0,1 0,0 0,0 -1,1 0,0 -1,1 -3,2 -1,1 -3,2 -5,3 -2,1 -5,1 -8,2 -3,1 -6,1 -9,1 -6,0 -11,-1 -16,-3 -4,-2 -8,-5 -12,-9 -3,-3 -5,-8 -7,-14 -2,-5 -3,-12 -3,-19 0,-7 1,-14 3,-20 2,-6 5,-11 8,-15 3,-4 8,-7 12,-9 5,-2 10,-3 16,-3 3,0 5,0 8,1 2,0 4,1 7,1 2,1 3,2 5,3 2,1 3,2 3,2 1,1 1,1 2,2 0,0 0,0 0,1 0,0 0,1 0,2 0,0 0,1 0,2 0,1 0,1 0,2 0,1 0,1 0,2 0,0 -1,0 -1,1 0,0 0,0 -1,0 0,0 -1,-1 -2,-1 -2,-1 -3,-2 -5,-3 -2,-2 -4,-3 -7,-3 -2,-1 -5,-2 -9,-2 -4,0 -7,1 -11,3 -3,1 -6,4 -8,7 -2,3 -4,7 -5,11 -2,5 -2,10 -2,15 0,6 0,11 1,16 2,4 3,8 6,10 2,3 5,6 8,7 3,2 7,2 11,2 4,0 7,0 10,-1 2,-1 5,-2 7,-3 1,-1 3,-2 4,-3 1,-1 2,-1 3,-1 0,0 1,0 1,0 0,0 0,1 0,1 0,0 1,1 1,2 0,0 0,1 0,2z"/>
  <path class="fil0" d="M1360 301c0,1 0,1 0,1 0,0 -1,1 -1,1 -1,0 -1,0 -2,0 -1,0 -2,0 -3,0 -1,0 -2,0 -2,0 -1,0 -2,0 -2,0 -1,0 -1,-1 -1,-1 0,0 0,0 0,-1l0 -62c0,-1 0,-1 0,-1 0,-1 0,-1 1,-1 0,0 1,0 2,0 0,-1 1,-1 2,-1 1,0 2,0 3,1 1,0 1,0 2,0 0,0 1,0 1,1 0,0 0,0 0,1l0 62zm1 -84c0,3 0,5 -1,6 -1,1 -3,1 -6,1 -2,0 -4,0 -5,-1 -1,-1 -2,-3 -2,-5 0,-3 1,-5 2,-6 1,-1 3,-1 5,-1 3,0 5,0 6,1 1,1 1,3 1,5z"/>
  <path class="fil0" d="M1423 270c0,-3 0,-6 -1,-9 0,-3 -1,-6 -2,-8 -2,-2 -3,-4 -5,-6 -2,-1 -5,-2 -8,-2 -1,0 -3,1 -4,1 -1,0 -3,1 -4,2 -2,1 -3,2 -5,4 -2,1 -3,3 -5,6l0 24c3,4 6,7 9,9 3,2 6,3 9,3 3,0 5,0 7,-2 2,-1 4,-3 5,-5 1,-3 2,-5 3,-8 0,-3 1,-6 1,-9zm12 -1c0,5 -1,10 -2,15 -1,4 -3,8 -5,11 -3,3 -5,5 -9,7 -3,1 -7,2 -11,2 -2,0 -4,0 -5,0 -2,-1 -3,-1 -5,-2 -1,-1 -3,-2 -4,-3 -2,-1 -3,-3 -5,-4l0 31c0,0 0,1 0,1 -1,0 -1,1 -1,1 -1,0 -1,0 -2,0 -1,0 -2,0 -3,0 -1,0 -2,0 -3,0 0,0 -1,0 -1,0 -1,0 -1,-1 -1,-1 0,0 0,-1 0,-1l0 -87c0,-1 0,-1 0,-1 0,-1 0,-1 1,-1 0,0 1,0 1,0 1,-1 2,-1 3,-1 0,0 1,0 2,1 0,0 1,0 1,0 1,0 1,0 1,1 0,0 1,0 1,1l0 8c1,-2 3,-4 5,-5 2,-2 3,-3 5,-4 2,-1 4,-1 6,-2 2,0 3,-1 6,-1 4,0 8,1 11,3 3,2 6,4 8,7 2,3 3,7 4,11 1,4 2,8 2,13z"/>
  <path class="fil0" d="M1460 301c0,1 -1,1 -1,1 0,0 0,1 -1,1 0,0 -1,0 -1,0 -1,0 -2,0 -3,0 -1,0 -2,0 -3,0 -1,0 -1,0 -2,0 0,0 0,-1 -1,-1 0,0 0,0 0,-1l0 -93c0,0 0,0 0,-1 1,0 1,0 1,0 1,-1 1,-1 2,-1 1,0 2,0 3,0 1,0 2,0 3,0 0,0 1,0 1,1 1,0 1,0 1,0 0,1 1,1 1,1l0 93z"/>
  <path class="fil0" d="M1512 273l-9 0c-3,0 -6,0 -8,0 -3,1 -5,2 -6,3 -2,1 -3,2 -3,4 -1,1 -2,3 -2,5 0,3 1,5 4,7 2,2 4,3 8,3 3,0 6,-1 8,-2 3,-2 6,-4 8,-7l0 -13zm12 28c0,1 0,1 -1,2 0,0 -1,0 -1,0 -1,0 -2,0 -3,0 -1,0 -2,0 -3,0 -1,0 -1,0 -2,0 0,-1 0,-1 0,-2l0 -6c-3,3 -6,5 -9,7 -3,1 -7,2 -11,2 -3,0 -6,0 -9,-1 -2,-1 -4,-2 -6,-4 -2,-1 -4,-3 -5,-6 -1,-2 -1,-5 -1,-8 0,-3 1,-6 2,-9 1,-3 3,-5 6,-6 3,-2 6,-3 10,-4 4,-1 8,-2 13,-2l8 0 0 -4c0,-3 0,-5 0,-7 -1,-2 -2,-3 -3,-4 -1,-2 -2,-3 -4,-3 -2,-1 -4,-1 -7,-1 -3,0 -5,0 -7,1 -3,0 -4,1 -6,2 -2,1 -3,2 -4,2 -1,1 -2,1 -3,1 0,0 -1,0 -1,0 0,0 0,-1 -1,-1 0,0 0,-1 0,-1 0,-1 0,-2 0,-2 0,-1 0,-2 0,-3 0,-1 1,-1 1,-2 1,0 2,-1 3,-2 2,-1 4,-2 6,-2 2,-1 4,-1 6,-2 3,0 5,-1 7,-1 5,0 9,1 12,2 3,1 5,3 7,4 2,2 4,5 4,8 1,3 2,6 2,10l0 42z"/>
  <path class="fil0" d="M1635 301c0,0 0,1 0,1 0,0 -1,1 -1,1 -1,0 -1,0 -2,0 -1,0 -2,0 -3,0 -1,0 -2,0 -3,0 0,0 -1,0 -2,0 0,0 0,-1 0,-1 -1,0 -1,-1 -1,-1l0 -40 -40 0 0 40c0,0 0,1 -1,1 0,0 0,1 -1,1 0,0 -1,0 -1,0 -1,0 -2,0 -3,0 -1,0 -2,0 -3,0 -1,0 -1,0 -2,0 0,0 -1,-1 -1,-1 0,0 0,-1 0,-1l0 -86c0,-1 0,-1 0,-1 0,-1 1,-1 1,-1 1,0 1,0 2,0 1,0 2,0 3,0 1,0 2,0 3,0 0,0 1,0 1,0 1,0 1,0 1,1 1,0 1,0 1,1l0 36 40 0 0 -36c0,-1 0,-1 1,-1 0,-1 0,-1 0,-1 1,0 2,0 2,0 1,0 2,0 3,0 1,0 2,0 3,0 1,0 1,0 2,0 0,0 1,0 1,1 0,0 0,0 0,1l0 86z"/>
  <path class="fil0" d="M1700 270c0,-3 0,-7 -1,-10 -1,-3 -2,-5 -3,-8 -2,-2 -4,-4 -6,-5 -3,-1 -6,-2 -9,-2 -4,0 -7,1 -9,2 -2,1 -4,3 -6,5 -2,2 -3,5 -3,8 -1,3 -2,6 -2,10 0,3 1,6 1,9 1,3 2,6 3,8 2,2 4,4 6,6 3,1 6,2 10,2 3,0 6,-1 8,-2 3,-1 5,-3 6,-5 2,-3 3,-5 4,-8 0,-3 1,-6 1,-10zm12 -1c0,5 -1,10 -2,14 -2,5 -4,8 -6,11 -3,3 -6,6 -10,8 -4,1 -9,2 -14,2 -5,0 -10,-1 -13,-2 -4,-2 -7,-4 -10,-7 -2,-3 -4,-6 -6,-10 -1,-5 -1,-9 -1,-15 0,-5 0,-9 2,-14 1,-4 3,-8 5,-11 3,-3 6,-5 10,-7 4,-2 9,-3 14,-3 5,0 10,1 14,3 3,1 6,4 9,6 3,3 4,7 6,11 1,4 2,9 2,14z"/>
  <path class="fil0" d="M1778 301c0,1 0,1 0,1 0,0 -1,1 -1,1 -1,0 -1,0 -2,0 0,0 -1,0 -2,0 -1,0 -2,0 -3,0 -1,0 -1,0 -1,0 -1,0 -1,-1 -1,-1 0,0 0,0 0,-1l0 -8c-4,4 -7,7 -11,9 -3,1 -7,2 -10,2 -4,0 -8,0 -11,-2 -3,-1 -5,-3 -7,-6 -1,-2 -3,-5 -3,-8 -1,-3 -2,-7 -2,-11l0 -38c0,-1 1,-1 1,-1 0,-1 0,-1 1,-1 0,0 1,0 1,0 1,-1 2,-1 3,-1 1,0 2,0 3,1 1,0 1,0 2,0 0,0 0,0 1,1 0,0 0,0 0,1l0 36c0,4 0,7 1,9 0,2 1,4 2,5 1,2 3,3 4,4 2,1 4,1 6,1 3,0 6,-1 8,-3 3,-2 6,-5 10,-9l0 -43c0,-1 0,-1 0,-1 0,-1 0,-1 1,-1 0,0 1,0 1,0 1,-1 2,-1 3,-1 1,0 2,0 3,1 1,0 1,0 2,0 0,0 0,0 1,1 0,0 0,0 0,1l0 62z"/>
  <path class="fil0" d="M1834 284c0,3 0,6 -1,9 -2,2 -3,4 -5,6 -3,2 -5,3 -8,4 -3,1 -6,1 -10,1 -2,0 -4,0 -6,0 -2,-1 -4,-1 -6,-2 -1,0 -3,-1 -4,-1 -1,-1 -2,-1 -2,-2 -1,0 -1,-1 -1,-2 0,-1 -1,-2 -1,-3 0,-1 1,-2 1,-2 0,-1 0,-1 0,-2 0,0 0,-1 1,-1 0,0 0,0 0,0 1,0 2,0 3,1 1,1 2,1 3,2 2,1 3,1 5,2 2,1 5,1 7,1 2,0 4,0 5,-1 2,0 3,-1 5,-1 1,-1 2,-2 2,-4 1,-1 1,-2 1,-4 0,-2 0,-3 -1,-4 -1,-2 -2,-3 -4,-4 -1,-1 -3,-1 -5,-2 -2,-1 -3,-2 -5,-2 -2,-1 -4,-2 -6,-3 -2,-1 -4,-2 -5,-4 -2,-1 -3,-3 -4,-5 -1,-2 -1,-4 -1,-7 0,-2 0,-5 1,-7 1,-2 3,-4 5,-6 2,-2 4,-3 7,-4 3,-1 6,-2 10,-2 1,0 3,1 5,1 1,0 3,0 4,1 1,0 2,1 3,1 1,1 2,1 3,2 0,0 0,0 1,0 0,1 0,1 0,1 0,1 0,1 0,2 0,0 0,1 0,2 0,0 0,1 0,2 0,0 0,1 0,1 0,0 -1,1 -1,1 0,0 0,0 -1,0 0,0 -1,0 -1,-1 -1,0 -2,-1 -3,-1 -2,-1 -3,-1 -5,-2 -1,0 -3,-1 -6,-1 -1,0 -3,1 -5,1 -1,0 -2,1 -3,2 -1,1 -2,2 -2,3 -1,1 -1,2 -1,3 0,2 0,4 1,5 1,1 2,2 4,3 1,1 3,2 5,3 2,0 4,1 6,2 2,1 3,2 5,3 2,1 4,2 5,3 2,2 3,3 4,5 1,2 1,4 1,7z"/>
  <path class="fil0" d="M1889 264c0,-6 -2,-11 -4,-14 -3,-4 -7,-6 -13,-6 -3,0 -5,1 -7,2 -2,1 -4,2 -6,4 -1,2 -2,4 -3,6 -1,3 -1,5 -1,8l34 0zm11 3c0,2 0,3 -1,4 -1,1 -2,1 -3,1l-41 0c0,4 0,7 1,10 0,2 2,5 3,7 2,2 4,3 7,4 2,1 5,2 9,2 3,0 6,0 8,-1 2,0 4,-1 6,-1 2,-1 3,-2 4,-2 1,-1 2,-1 3,-1 0,0 0,0 0,0 1,1 1,1 1,1 0,1 0,1 0,2 0,0 0,1 0,2 0,0 0,1 0,1 0,1 0,1 0,1 0,1 0,1 0,1 0,1 -1,1 -1,1 0,0 -1,1 -2,1 -1,1 -3,2 -5,2 -2,1 -4,1 -7,2 -2,0 -5,0 -8,0 -5,0 -10,0 -13,-2 -4,-1 -7,-4 -10,-6 -3,-3 -5,-7 -6,-11 -1,-4 -2,-9 -2,-15 0,-5 1,-10 2,-14 1,-5 3,-8 6,-11 3,-3 6,-6 9,-7 4,-2 8,-3 13,-3 5,0 9,1 12,3 4,1 6,3 9,6 2,3 3,6 4,10 1,3 2,7 2,11l0 2z"/>
  <path class="fil0" d="M1929 293c0,1 0,3 0,4 -1,1 -1,2 -1,3 0,1 -1,2 -1,4 -1,1 -2,2 -2,3l-10 14c0,0 0,1 -1,1 0,0 0,0 -1,1 0,0 -1,0 -1,0 -1,0 -1,0 -2,0 -1,0 -2,0 -2,0 -1,0 -1,0 -1,0 -1,-1 -1,-1 -1,-1 0,0 0,-1 0,-1l10 -19 0 -9c0,-1 0,-2 0,-3 0,-1 1,-1 1,-2 1,0 1,0 2,0 1,-1 2,-1 3,-1 1,0 2,0 3,1 1,0 2,0 2,0 1,1 1,1 1,2 1,1 1,2 1,3z"/>
  <path class="fil0" d="M2018 240c0,-3 -1,-7 -3,-9 -1,-2 -3,-4 -5,-5 -2,-2 -4,-2 -6,-3 -2,0 -4,0 -6,0l-11 0 0 36 11 0c3,0 6,-1 9,-2 2,0 4,-2 6,-3 1,-2 2,-4 3,-6 1,-3 2,-5 2,-8zm12 -1c0,5 -1,9 -2,12 -2,4 -4,7 -7,10 -2,2 -6,4 -10,6 -4,1 -8,2 -14,2l-10 0 0 32c0,0 0,1 0,1 0,0 -1,1 -1,1 -1,0 -1,0 -2,0 -1,0 -2,0 -3,0 -1,0 -2,0 -3,0 -1,0 -1,0 -2,0 0,0 0,-1 -1,-1 0,0 0,-1 0,-1l0 -83c0,-2 1,-3 2,-4 1,-1 2,-1 3,-1l19 0c2,0 4,0 6,0 1,0 3,1 6,1 2,1 5,2 7,3 3,2 5,3 7,6 1,2 3,4 4,7 1,3 1,6 1,9z"/>
  <path class="fil0" d="M2085 264c0,-6 -1,-11 -4,-14 -3,-4 -7,-6 -13,-6 -2,0 -5,1 -7,2 -2,1 -4,2 -5,4 -2,2 -3,4 -4,6 -1,3 -1,5 -1,8l34 0zm11 3c0,2 0,3 -1,4 -1,1 -2,1 -3,1l-41 0c0,4 0,7 1,10 1,2 2,5 3,7 2,2 4,3 7,4 2,1 6,2 9,2 3,0 6,0 8,-1 2,0 4,-1 6,-1 2,-1 3,-2 4,-2 1,-1 2,-1 3,-1 0,0 0,0 1,0 0,1 0,1 0,1 0,1 0,1 0,2 1,0 1,1 1,2 0,0 0,1 0,1 -1,1 -1,1 -1,1 0,1 0,1 0,1 0,1 0,1 -1,1 0,0 -1,1 -2,1 -1,1 -3,2 -5,2 -2,1 -4,1 -7,2 -2,0 -5,0 -8,0 -5,0 -9,0 -13,-2 -4,-1 -7,-4 -10,-6 -3,-3 -5,-7 -6,-11 -1,-4 -2,-9 -2,-15 0,-5 1,-10 2,-14 2,-5 4,-8 6,-11 3,-3 6,-6 10,-7 3,-2 7,-3 12,-3 5,0 9,1 12,3 4,1 7,3 9,6 2,3 4,6 5,10 1,3 1,7 1,11l0 2z"/>
  <path class="fil0" d="M2163 301c0,1 0,1 0,1 0,0 0,1 -1,1 0,0 -1,0 -2,0 0,0 -1,0 -2,0 -1,0 -2,0 -3,0 -1,0 -1,0 -2,0 0,0 -1,-1 -1,-1 0,0 0,0 0,-1l0 -36c0,-4 0,-7 -1,-9 0,-2 -1,-4 -2,-6 -1,-1 -3,-3 -4,-3 -2,-1 -4,-2 -6,-2 -3,0 -6,1 -9,3 -3,2 -6,5 -9,9l0 44c0,1 0,1 0,1 0,0 0,1 -1,1 0,0 -1,0 -2,0 0,0 -1,0 -2,0 -2,0 -2,0 -3,0 -1,0 -1,0 -2,0 0,0 -1,-1 -1,-1 0,0 0,0 0,-1l0 -62c0,-1 0,-1 0,-1 0,-1 1,-1 1,-1 0,0 1,0 2,0 0,-1 1,-1 2,-1 1,0 2,0 3,1 0,0 1,0 1,0 1,0 1,0 1,1 0,0 0,0 0,1l0 8c4,-4 7,-7 11,-9 3,-2 7,-3 10,-3 4,0 8,1 11,3 2,1 5,3 7,5 1,3 2,5 3,9 1,3 1,7 1,11l0 38z"/>
  <path class="fil0" d="M2192 301c0,1 0,1 0,1 0,0 -1,1 -1,1 -1,0 -1,0 -2,0 -1,0 -2,0 -3,0 -1,0 -2,0 -2,0 -1,0 -2,0 -2,0 -1,0 -1,-1 -1,-1 0,0 0,0 0,-1l0 -62c0,-1 0,-1 0,-1 0,-1 0,-1 1,-1 0,0 1,0 2,0 0,-1 1,-1 2,-1 1,0 2,0 3,1 1,0 1,0 2,0 0,0 1,0 1,1 0,0 0,0 0,1l0 62zm1 -84c0,3 0,5 -1,6 -1,1 -3,1 -6,1 -2,0 -4,0 -5,-1 -1,-1 -2,-3 -2,-5 0,-3 1,-5 2,-6 1,-1 3,-1 5,-1 3,0 5,0 6,1 1,1 1,3 1,5z"/>
  <path class="fil0" d="M2263 301c0,1 0,1 0,1 -1,0 -1,1 -1,1 -1,0 -1,0 -2,0 -1,0 -2,0 -3,0 -1,0 -2,0 -3,0 0,0 -1,0 -1,0 -1,0 -1,-1 -1,-1 0,0 0,0 0,-1l0 -36c0,-4 -1,-7 -1,-9 -1,-2 -2,-4 -3,-6 -1,-1 -2,-3 -4,-3 -2,-1 -3,-2 -6,-2 -2,0 -5,1 -8,3 -3,2 -6,5 -9,9l0 44c0,1 0,1 0,1 -1,0 -1,1 -1,1 -1,0 -1,0 -2,0 -1,0 -2,0 -3,0 -1,0 -2,0 -3,0 0,0 -1,0 -1,0 -1,0 -1,-1 -1,-1 0,0 -1,0 -1,-1l0 -62c0,-1 1,-1 1,-1 0,-1 0,-1 1,-1 0,0 0,0 1,0 1,-1 2,-1 3,-1 1,0 2,0 2,1 1,0 1,0 2,0 0,0 0,0 1,1 0,0 0,0 0,1l0 8c3,-4 7,-7 10,-9 4,-2 7,-3 11,-3 4,0 7,1 10,3 3,1 5,3 7,5 2,3 3,5 4,9 0,3 1,7 1,11l0 38z"/>
  <path class="fil0" d="M2319 284c0,3 -1,6 -2,9 -1,2 -3,4 -5,6 -2,2 -4,3 -7,4 -3,1 -7,1 -10,1 -2,0 -5,0 -7,0 -2,-1 -3,-1 -5,-2 -2,0 -3,-1 -4,-1 -1,-1 -2,-1 -2,-2 -1,0 -1,-1 -2,-2 0,-1 0,-2 0,-3 0,-1 0,-2 0,-2 0,-1 0,-1 1,-2 0,0 0,-1 0,-1 0,0 1,0 1,0 1,0 1,0 2,1 1,1 3,1 4,2 1,1 3,1 5,2 2,1 4,1 7,1 2,0 4,0 5,-1 2,0 3,-1 4,-1 1,-1 2,-2 3,-4 1,-1 1,-2 1,-4 0,-2 -1,-3 -2,-4 0,-2 -2,-3 -3,-4 -2,-1 -3,-1 -5,-2 -2,-1 -4,-2 -6,-2 -2,-1 -4,-2 -5,-3 -2,-1 -4,-2 -5,-4 -2,-1 -3,-3 -4,-5 -1,-2 -1,-4 -1,-7 0,-2 0,-5 1,-7 1,-2 2,-4 4,-6 2,-2 5,-3 7,-4 3,-1 7,-2 10,-2 2,0 4,1 5,1 2,0 3,0 5,1 1,0 2,1 3,1 1,1 2,1 2,2 1,0 1,0 1,0 0,1 1,1 1,1 0,1 0,1 0,2 0,0 0,1 0,2 0,0 0,1 0,2 0,0 0,1 -1,1 0,0 0,1 0,1 0,0 -1,0 -1,0 0,0 -1,0 -2,-1 0,0 -1,-1 -3,-1 -1,-1 -2,-1 -4,-2 -2,0 -4,-1 -6,-1 -2,0 -3,1 -5,1 -1,0 -3,1 -4,2 -1,1 -1,2 -2,3 0,1 0,2 0,3 0,2 0,4 1,5 1,1 2,2 4,3 1,1 3,2 5,3 1,0 3,1 5,2 2,1 4,2 6,3 2,1 4,2 5,3 2,2 3,3 4,5 1,2 1,4 1,7z"/>
  <path class="fil0" d="M2385 301c0,1 0,1 0,1 0,0 -1,1 -1,1 -1,0 -1,0 -2,0 0,0 -1,0 -2,0 -1,0 -2,0 -3,0 -1,0 -1,0 -1,0 -1,0 -1,-1 -1,-1 0,0 0,0 0,-1l0 -8c-4,4 -7,7 -11,9 -3,1 -7,2 -10,2 -5,0 -8,0 -11,-2 -3,-1 -5,-3 -7,-6 -1,-2 -3,-5 -3,-8 -1,-3 -2,-7 -2,-11l0 -38c0,-1 1,-1 1,-1 0,-1 0,-1 1,-1 0,0 1,0 1,0 1,-1 2,-1 3,-1 1,0 2,0 3,1 1,0 1,0 2,0 0,0 0,0 1,1 0,0 0,0 0,1l0 36c0,4 0,7 1,9 0,2 1,4 2,5 1,2 3,3 4,4 2,1 4,1 6,1 3,0 6,-1 8,-3 3,-2 6,-5 9,-9l0 -43c0,-1 1,-1 1,-1 0,-1 0,-1 1,-1 0,0 1,0 1,0 1,-1 2,-1 3,-1 1,0 2,0 3,1 1,0 1,0 2,0 0,0 0,0 1,1 0,0 0,0 0,1l0 62z"/>
  <path class="fil0" d="M2414 301c0,1 0,1 -1,1 0,0 0,1 0,1 -1,0 -1,0 -2,0 -1,0 -2,0 -3,0 -1,0 -2,0 -3,0 0,0 -1,0 -1,0 -1,0 -1,-1 -1,-1 0,0 -1,0 -1,-1l0 -93c0,0 1,0 1,-1 0,0 0,0 1,0 0,-1 1,-1 1,-1 1,0 2,0 3,0 1,0 2,0 3,0 1,0 1,0 2,1 0,0 0,0 0,0 1,1 1,1 1,1l0 93z"/>
  <path class="fil0" d="M2467 273l-10 0c-3,0 -6,0 -8,0 -2,1 -4,2 -6,3 -1,1 -2,2 -3,4 -1,1 -1,3 -1,5 0,3 1,5 3,7 2,2 5,3 8,3 3,0 6,-1 9,-2 2,-2 5,-4 8,-7l0 -13zm11 28c0,1 0,1 -1,2 0,0 0,0 -1,0 -1,0 -2,0 -3,0 -1,0 -2,0 -3,0 0,0 -1,0 -1,0 -1,-1 -1,-1 -1,-2l0 -6c-2,3 -6,5 -9,7 -3,1 -7,2 -10,2 -4,0 -7,0 -9,-1 -3,-1 -5,-2 -7,-4 -2,-1 -3,-3 -4,-6 -1,-2 -2,-5 -2,-8 0,-3 1,-6 2,-9 2,-3 4,-5 6,-6 3,-2 6,-3 10,-4 4,-1 8,-2 13,-2l9 0 0 -4c0,-3 -1,-5 -1,-7 -1,-2 -1,-3 -2,-4 -2,-2 -3,-3 -5,-3 -2,-1 -4,-1 -6,-1 -3,0 -6,0 -8,1 -2,0 -4,1 -6,2 -2,1 -3,2 -4,2 -1,1 -2,1 -3,1 0,0 0,0 -1,0 0,0 0,-1 0,-1 -1,0 -1,-1 -1,-1 0,-1 0,-2 0,-2 0,-1 0,-2 0,-3 1,-1 1,-1 2,-2 0,0 1,-1 3,-2 1,-1 3,-2 5,-2 2,-1 4,-1 6,-2 3,0 5,-1 8,-1 4,0 8,1 11,2 3,1 6,3 8,4 1,2 3,5 4,8 1,3 1,6 1,10l0 42z"/>
  <path class="fil0" d="M2571 278c0,-3 0,-5 -1,-7 -1,-2 -2,-4 -4,-5 -1,-2 -3,-3 -6,-4 -2,0 -5,-1 -9,-1l-14 0 0 32 17 0c3,0 5,0 7,-1 2,-1 4,-2 5,-3 2,-1 3,-3 4,-5 1,-1 1,-4 1,-6zm-5 -41c0,-2 0,-4 -1,-6 -1,-2 -1,-3 -3,-5 -1,-1 -3,-2 -5,-2 -2,-1 -5,-1 -8,-1l-12 0 0 29 13 0c3,0 6,-1 8,-1 2,-1 3,-2 4,-4 2,-1 3,-3 3,-4 1,-2 1,-4 1,-6zm18 40c0,3 -1,6 -1,8 -1,2 -2,4 -3,6 -2,2 -3,4 -5,5 -2,2 -4,3 -6,4 -2,1 -5,2 -7,2 -3,1 -6,1 -9,1l-24 0c-1,0 -2,0 -3,-1 0,-1 -1,-2 -1,-4l0 -80c0,-2 1,-3 1,-4 1,-1 2,-1 3,-1l21 0c5,0 9,0 13,1 3,1 6,3 8,5 3,2 4,4 5,7 2,3 2,6 2,10 0,2 0,4 -1,6 0,2 -1,4 -2,5 -1,2 -2,3 -4,5 -1,1 -3,2 -5,3 3,0 5,1 7,2 2,2 4,3 6,5 1,2 3,4 3,7 1,2 2,5 2,8z"/>
  <path class="fil0" d="M2650 301c0,1 0,1 0,1 0,0 -1,1 -1,1 0,0 -1,0 -2,0 0,0 -1,0 -2,0 -1,0 -2,0 -3,0 0,0 -1,0 -1,0 -1,0 -1,-1 -1,-1 0,0 0,0 0,-1l0 -8c-4,4 -7,7 -11,9 -3,1 -7,2 -10,2 -4,0 -8,0 -11,-2 -2,-1 -5,-3 -6,-6 -2,-2 -3,-5 -4,-8 -1,-3 -1,-7 -1,-11l0 -38c0,-1 0,-1 0,-1 0,-1 0,-1 1,-1 0,0 1,0 2,0 0,-1 1,-1 2,-1 1,0 2,0 3,1 1,0 1,0 2,0 0,0 1,0 1,1 0,0 0,0 0,1l0 36c0,4 0,7 1,9 0,2 1,4 2,5 1,2 3,3 4,4 2,1 4,1 6,1 3,0 6,-1 9,-3 3,-2 6,-5 9,-9l0 -43c0,-1 0,-1 0,-1 0,-1 0,-1 1,-1 0,0 1,0 2,0 0,-1 1,-1 2,-1 2,0 2,0 3,1 1,0 1,0 2,0 0,0 1,0 1,1 0,0 0,0 0,1l0 62z"/>
  <path class="fil0" d="M2707 284c0,3 -1,6 -2,9 -1,2 -3,4 -5,6 -2,2 -5,3 -8,4 -3,1 -6,1 -10,1 -2,0 -4,0 -6,0 -2,-1 -4,-1 -5,-2 -2,0 -3,-1 -4,-1 -2,-1 -2,-1 -3,-2 0,0 -1,-1 -1,-2 0,-1 0,-2 0,-3 0,-1 0,-2 0,-2 0,-1 0,-1 0,-2 0,0 0,-1 1,-1 0,0 0,0 1,0 0,0 1,0 2,1 1,1 2,1 3,2 2,1 4,1 6,2 2,1 4,1 6,1 2,0 4,0 6,-1 1,0 3,-1 4,-1 1,-1 2,-2 2,-4 1,-1 1,-2 1,-4 0,-2 0,-3 -1,-4 -1,-2 -2,-3 -4,-4 -1,-1 -3,-1 -5,-2 -1,-1 -3,-2 -5,-2 -2,-1 -4,-2 -6,-3 -2,-1 -3,-2 -5,-4 -1,-1 -3,-3 -3,-5 -1,-2 -2,-4 -2,-7 0,-2 1,-5 2,-7 1,-2 2,-4 4,-6 2,-2 4,-3 7,-4 3,-1 6,-2 10,-2 1,0 3,1 5,1 1,0 3,0 4,1 2,0 3,1 4,1 1,1 1,1 2,2 0,0 1,0 1,0 0,1 0,1 0,1 0,1 0,1 0,2 0,0 0,1 0,2 0,0 0,1 0,2 0,0 0,1 0,1 0,0 0,1 -1,1 0,0 0,0 0,0 -1,0 -1,0 -2,-1 -1,0 -2,-1 -3,-1 -1,-1 -3,-1 -5,-2 -1,0 -3,-1 -5,-1 -2,0 -4,1 -5,1 -2,0 -3,1 -4,2 -1,1 -2,2 -2,3 -1,1 -1,2 -1,3 0,2 1,4 1,5 1,1 3,2 4,3 1,1 3,2 5,3 2,0 4,1 6,2 2,1 4,2 6,3 2,1 3,2 5,3 1,2 2,3 3,5 1,2 2,4 2,7z"/>
  <path class="fil0" d="M2731 301c0,1 0,1 -1,1 0,0 0,1 0,1 -1,0 -1,0 -2,0 -1,0 -2,0 -3,0 -1,0 -2,0 -3,0 -1,0 -1,0 -2,0 0,0 0,-1 0,-1 -1,0 -1,0 -1,-1l0 -62c0,-1 0,-1 1,-1 0,-1 0,-1 0,-1 1,0 1,0 2,0 1,-1 2,-1 3,-1 1,0 2,0 3,1 1,0 1,0 2,0 0,0 0,0 0,1 1,0 1,0 1,1l0 62zm1 -84c0,3 -1,5 -2,6 -1,1 -2,1 -5,1 -3,0 -5,0 -6,-1 -1,-1 -1,-3 -1,-5 0,-3 0,-5 1,-6 1,-1 3,-1 6,-1 3,0 5,0 5,1 1,1 2,3 2,5z"/>
  <path class="fil0" d="M2802 301c0,1 -1,1 -1,1 0,0 0,1 -1,1 0,0 -1,0 -1,0 -1,0 -2,0 -3,0 -1,0 -2,0 -3,0 -1,0 -1,0 -2,0 0,0 0,-1 -1,-1 0,0 0,0 0,-1l0 -36c0,-4 0,-7 -1,-9 0,-2 -1,-4 -2,-6 -1,-1 -2,-3 -4,-3 -2,-1 -4,-2 -6,-2 -3,0 -6,1 -9,3 -2,2 -5,5 -8,9l0 44c0,1 -1,1 -1,1 0,0 0,1 -1,1 0,0 -1,0 -1,0 -1,0 -2,0 -3,0 -1,0 -2,0 -3,0 -1,0 -1,0 -2,0 0,0 0,-1 -1,-1 0,0 0,0 0,-1l0 -62c0,-1 0,-1 0,-1 1,-1 1,-1 1,-1 1,0 1,0 2,0 0,-1 1,-1 2,-1 1,0 2,0 3,1 1,0 1,0 1,0 1,0 1,0 1,1 0,0 0,0 0,1l0 8c4,-4 7,-7 11,-9 3,-2 7,-3 10,-3 4,0 8,1 11,3 3,1 5,3 7,5 1,3 3,5 3,9 1,3 2,7 2,11l0 38z"/>
  <path class="fil0" d="M2860 264c0,-6 -1,-11 -4,-14 -3,-4 -7,-6 -12,-6 -3,0 -5,1 -8,2 -2,1 -3,2 -5,4 -1,2 -2,4 -3,6 -1,3 -1,5 -2,8l34 0zm12 3c0,2 -1,3 -2,4 -1,1 -2,1 -3,1l-41 0c0,4 1,7 2,10 0,2 1,5 3,7 2,2 4,3 6,4 3,1 6,2 10,2 3,0 5,0 8,-1 2,0 4,-1 6,-1 1,-1 3,-2 4,-2 1,-1 2,-1 2,-1 1,0 1,0 1,0 0,1 1,1 1,1 0,1 0,1 0,2 0,0 0,1 0,2 0,0 0,1 0,1 0,1 0,1 0,1 0,1 0,1 0,1 -1,1 -1,1 -1,1 0,0 -1,1 -2,1 -2,1 -3,2 -5,2 -2,1 -4,1 -7,2 -3,0 -5,0 -8,0 -5,0 -10,0 -14,-2 -4,-1 -7,-4 -9,-6 -3,-3 -5,-7 -6,-11 -2,-4 -2,-9 -2,-15 0,-5 0,-10 2,-14 1,-5 3,-8 6,-11 2,-3 5,-6 9,-7 4,-2 8,-3 12,-3 5,0 9,1 13,3 3,1 6,3 8,6 3,3 4,6 5,10 1,3 2,7 2,11l0 2z"/>
  <path class="fil0" d="M2924 284c0,3 0,6 -1,9 -2,2 -3,4 -5,6 -2,2 -5,3 -8,4 -3,1 -6,1 -10,1 -2,0 -4,0 -6,0 -2,-1 -4,-1 -6,-2 -1,0 -2,-1 -4,-1 -1,-1 -2,-1 -2,-2 -1,0 -1,-1 -1,-2 0,-1 0,-2 0,-3 0,-1 0,-2 0,-2 0,-1 0,-1 0,-2 0,0 0,-1 1,-1 0,0 0,0 0,0 1,0 2,0 3,1 1,1 2,1 3,2 2,1 4,1 6,2 1,1 4,1 6,1 2,0 4,0 6,-1 1,0 2,-1 4,-1 1,-1 2,-2 2,-4 1,-1 1,-2 1,-4 0,-2 0,-3 -1,-4 -1,-2 -2,-3 -4,-4 -1,-1 -3,-1 -5,-2 -1,-1 -3,-2 -5,-2 -2,-1 -4,-2 -6,-3 -2,-1 -4,-2 -5,-4 -2,-1 -3,-3 -4,-5 -1,-2 -1,-4 -1,-7 0,-2 1,-5 1,-7 1,-2 3,-4 5,-6 2,-2 4,-3 7,-4 3,-1 6,-2 10,-2 1,0 3,1 5,1 1,0 3,0 4,1 1,0 3,1 3,1 1,1 2,1 3,2 0,0 0,0 1,0 0,1 0,1 0,1 0,1 0,1 0,2 0,0 0,1 0,2 0,0 0,1 0,2 0,0 0,1 0,1 0,0 -1,1 -1,1 0,0 0,0 -1,0 0,0 -1,0 -1,-1 -1,0 -2,-1 -3,-1 -2,-1 -3,-1 -5,-2 -1,0 -3,-1 -5,-1 -2,0 -4,1 -6,1 -1,0 -2,1 -3,2 -1,1 -2,2 -2,3 -1,1 -1,2 -1,3 0,2 0,4 1,5 1,1 2,2 4,3 1,1 3,2 5,3 2,0 4,1 6,2 2,1 4,2 5,3 2,1 4,2 6,3 1,2 2,3 3,5 1,2 1,4 1,7z"/>
  <path class="fil0" d="M2976 284c0,3 0,6 -2,9 -1,2 -2,4 -5,6 -2,2 -4,3 -7,4 -3,1 -7,1 -10,1 -2,0 -5,0 -7,0 -2,-1 -3,-1 -5,-2 -1,0 -3,-1 -4,-1 -1,-1 -2,-1 -2,-2 -1,0 -1,-1 -1,-2 -1,-1 -1,-2 -1,-3 0,-1 0,-2 0,-2 0,-1 1,-1 1,-2 0,0 0,-1 0,-1 1,0 1,0 1,0 1,0 1,0 2,1 1,1 3,1 4,2 1,1 3,1 5,2 2,1 4,1 7,1 2,0 4,0 5,-1 2,0 3,-1 4,-1 1,-1 2,-2 3,-4 1,-1 1,-2 1,-4 0,-2 -1,-3 -1,-4 -1,-2 -3,-3 -4,-4 -1,-1 -3,-1 -5,-2 -2,-1 -4,-2 -6,-2 -2,-1 -4,-2 -5,-3 -2,-1 -4,-2 -5,-4 -2,-1 -3,-3 -4,-5 -1,-2 -1,-4 -1,-7 0,-2 0,-5 1,-7 1,-2 2,-4 4,-6 2,-2 5,-3 7,-4 3,-1 7,-2 10,-2 2,0 4,1 5,1 2,0 3,0 5,1 1,0 2,1 3,1 1,1 2,1 2,2 1,0 1,0 1,0 0,1 1,1 1,1 0,1 0,1 0,2 0,0 0,1 0,2 0,0 0,1 0,2 0,0 0,1 -1,1 0,0 0,1 0,1 0,0 -1,0 -1,0 0,0 -1,0 -2,-1 0,0 -1,-1 -3,-1 -1,-1 -2,-1 -4,-2 -2,0 -4,-1 -6,-1 -2,0 -3,1 -5,1 -1,0 -3,1 -4,2 0,1 -1,2 -2,3 0,1 0,2 0,3 0,2 0,4 1,5 1,1 2,2 4,3 1,1 3,2 5,3 1,0 3,1 5,2 2,1 4,2 6,3 2,1 4,2 5,3 2,2 3,3 4,5 1,2 1,4 1,7z"/>
  <path class="fil0" d="M3061 240c0,-3 -1,-7 -2,-9 -2,-2 -3,-4 -5,-5 -2,-2 -4,-2 -6,-3 -3,0 -5,0 -7,0l-11 0 0 36 11 0c4,0 7,-1 9,-2 2,0 4,-2 6,-3 2,-2 3,-4 4,-6 0,-3 1,-5 1,-8zm12 -1c0,5 0,9 -2,12 -1,4 -3,7 -6,10 -3,2 -6,4 -10,6 -4,1 -9,2 -14,2l-11 0 0 32c0,0 0,1 0,1 0,0 0,1 -1,1 0,0 -1,0 -2,0 0,0 -1,0 -3,0 -1,0 -2,0 -2,0 -1,0 -2,0 -2,0 -1,0 -1,-1 -1,-1 0,0 0,-1 0,-1l0 -83c0,-2 0,-3 1,-4 1,-1 2,-1 3,-1l19 0c2,0 4,0 6,0 2,0 4,1 6,1 3,1 5,2 8,3 2,2 4,3 6,6 2,2 3,4 4,7 1,3 1,6 1,9z"/>
  <path class="fil0" d="M3122 273l-10 0c-3,0 -6,0 -8,0 -2,1 -4,2 -6,3 -1,1 -2,2 -3,4 -1,1 -1,3 -1,5 0,3 1,5 3,7 2,2 5,3 9,3 3,0 5,-1 8,-2 3,-2 5,-4 8,-7l0 -13zm11 28c0,1 0,1 0,2 -1,0 -1,0 -2,0 0,0 -1,0 -3,0 -1,0 -2,0 -2,0 -1,0 -2,0 -2,0 0,-1 0,-1 0,-2l0 -6c-3,3 -6,5 -10,7 -3,1 -6,2 -10,2 -3,0 -6,0 -9,-1 -3,-1 -5,-2 -7,-4 -2,-1 -3,-3 -4,-6 -1,-2 -2,-5 -2,-8 0,-3 1,-6 3,-9 1,-3 3,-5 6,-6 2,-2 6,-3 9,-4 4,-1 9,-2 13,-2l9 0 0 -4c0,-3 0,-5 -1,-7 0,-2 -1,-3 -2,-4 -1,-2 -3,-3 -5,-3 -1,-1 -4,-1 -6,-1 -3,0 -6,0 -8,1 -2,0 -4,1 -6,2 -1,1 -3,2 -4,2 -1,1 -2,1 -2,1 -1,0 -1,0 -1,0 -1,0 -1,-1 -1,-1 0,0 0,-1 0,-1 -1,-1 -1,-2 -1,-2 0,-1 1,-2 1,-3 0,-1 0,-1 1,-2 0,0 2,-1 3,-2 2,-1 3,-2 5,-2 2,-1 4,-1 7,-2 2,0 4,-1 7,-1 4,0 8,1 11,2 3,1 6,3 8,4 2,2 3,5 4,8 1,3 1,6 1,10l0 42z"/>
  <path class="fil0" d="M3187 243c0,1 0,2 0,2 0,1 0,2 0,2 -1,0 -1,1 -1,1 0,0 0,0 -1,0 0,0 -1,0 -1,0 -1,0 -1,-1 -2,-1 -1,0 -1,0 -2,0 -1,-1 -2,-1 -3,-1 -1,0 -2,1 -3,1 -1,0 -2,1 -4,2 -1,1 -2,3 -4,5 -1,1 -2,3 -4,6l0 41c0,1 0,1 0,1 0,0 -1,1 -1,1 -1,0 -1,0 -2,0 -1,0 -2,0 -3,0 -1,0 -2,0 -2,0 -1,0 -2,0 -2,0 -1,0 -1,-1 -1,-1 0,0 0,0 0,-1l0 -62c0,-1 0,-1 0,-1 0,-1 0,-1 1,-1 0,0 1,0 1,0 1,-1 2,-1 3,-1 1,0 2,0 2,1 1,0 2,0 2,0 0,0 1,0 1,1 0,0 0,0 0,1l0 9c2,-3 3,-5 5,-6 1,-2 3,-3 4,-4 1,-1 3,-2 4,-2 1,0 3,-1 4,-1 1,0 1,0 2,1 1,0 2,0 2,0 1,0 2,0 3,1 0,0 1,0 1,0 0,0 0,1 1,1 0,0 0,0 0,1 0,0 0,1 0,1 0,1 0,2 0,3z"/>
  <path class="fil0" d="M3247 301c0,0 0,1 0,1 0,0 0,1 -1,1 0,0 -1,0 -2,0 -1,0 -1,0 -3,0 -1,0 -2,0 -3,0 -1,0 -1,0 -2,0 0,0 -1,-1 -1,-1 0,0 -1,0 -1,-1l-26 -35 0 35c0,1 0,1 -1,1 0,0 0,1 0,1 -1,0 -1,0 -2,0 -1,0 -2,0 -3,0 -1,0 -2,0 -3,0 0,0 -1,0 -1,0 -1,0 -1,-1 -1,-1 -1,0 -1,0 -1,-1l0 -93c0,0 0,0 1,-1 0,0 0,0 1,0 0,-1 1,-1 1,-1 1,0 2,0 3,0 1,0 2,0 3,0 1,0 1,0 2,1 0,0 0,0 0,0 1,1 1,1 1,1l0 57 23 -26c1,-1 1,-1 1,-1 1,-1 1,-1 2,-1 0,0 1,0 2,0 1,-1 2,-1 3,-1 1,0 2,0 3,1 0,0 1,0 1,0 1,0 1,0 2,0 0,1 0,1 0,2 0,0 0,1 -1,1 0,1 0,1 -1,2l-23 23 26 33c0,1 1,1 1,2 0,0 0,1 0,1z"/>
  <path class="fil0" d="M3272 293c0,1 0,3 0,4 0,1 -1,2 -1,3 0,1 -1,2 -1,4 -1,1 -1,2 -2,3l-10 14c0,0 0,1 0,1 -1,0 -1,0 -1,1 -1,0 -1,0 -2,0 -1,0 -1,0 -2,0 -1,0 -2,0 -2,0 -1,0 -1,0 -1,0 0,-1 -1,-1 -1,-1 0,0 0,-1 1,-1l9 -19 0 -9c0,-1 0,-2 0,-3 0,-1 1,-1 1,-2 1,0 2,0 2,0 1,-1 2,-1 3,-1 2,0 3,0 3,1 1,0 2,0 2,0 1,1 1,1 2,2 0,1 0,2 0,3z"/>
  <path class="fil0" d="M3385 225c0,1 0,2 0,2 0,1 0,2 0,2 0,1 -1,1 -1,1 0,0 0,0 -1,0 0,0 -1,0 -2,-1 -2,-1 -4,-2 -6,-3 -2,-1 -4,-2 -7,-3 -3,-1 -7,-1 -11,-1 -5,0 -9,1 -13,3 -4,1 -8,4 -10,7 -3,3 -5,7 -7,12 -1,4 -2,9 -2,14 0,6 1,11 3,15 1,5 3,8 6,11 3,4 6,6 10,7 4,2 8,3 13,3 3,0 6,-1 8,-1 3,-1 6,-2 8,-3l0 -27 -20 0c-1,0 -2,0 -2,-1 0,-1 -1,-2 -1,-3 0,-1 0,-2 0,-3 1,0 1,-1 1,-1 0,-1 0,-1 1,-1 0,0 0,0 1,0l28 0c0,0 1,0 2,0 0,0 0,0 1,1 0,0 1,1 1,1 0,1 0,2 0,3l0 34c0,1 0,2 0,3 -1,1 -2,2 -3,2 -1,1 -3,2 -5,2 -2,1 -5,2 -7,3 -2,0 -4,0 -7,1 -2,0 -4,0 -6,0 -7,0 -13,-1 -19,-3 -5,-2 -10,-5 -14,-9 -3,-4 -6,-9 -8,-15 -2,-5 -3,-11 -3,-18 0,-7 1,-14 3,-20 2,-5 5,-10 9,-14 4,-5 9,-8 14,-10 6,-2 12,-3 18,-3 4,0 7,0 10,1 3,0 5,1 8,2 2,0 4,1 6,2 1,1 2,2 3,3 0,0 1,1 1,2 0,1 0,2 0,3z"/>
  <path class="fil0" d="M3438 273l-10 0c-3,0 -6,0 -8,0 -2,1 -4,2 -6,3 -1,1 -2,2 -3,4 -1,1 -1,3 -1,5 0,3 1,5 3,7 2,2 5,3 9,3 3,0 5,-1 8,-2 3,-2 5,-4 8,-7l0 -13zm11 28c0,1 0,1 0,2 -1,0 -1,0 -2,0 0,0 -1,0 -3,0 -1,0 -2,0 -2,0 -1,0 -2,0 -2,0 0,-1 0,-1 0,-2l0 -6c-3,3 -6,5 -10,7 -3,1 -6,2 -10,2 -3,0 -6,0 -9,-1 -3,-1 -5,-2 -7,-4 -2,-1 -3,-3 -4,-6 -1,-2 -2,-5 -2,-8 0,-3 1,-6 3,-9 1,-3 3,-5 6,-6 2,-2 6,-3 9,-4 4,-1 9,-2 13,-2l9 0 0 -4c0,-3 0,-5 -1,-7 0,-2 -1,-3 -2,-4 -1,-2 -3,-3 -5,-3 -1,-1 -4,-1 -6,-1 -3,0 -5,0 -8,1 -2,0 -4,1 -6,2 -1,1 -3,2 -4,2 -1,1 -2,1 -2,1 -1,0 -1,0 -1,0 -1,0 -1,-1 -1,-1 0,0 0,-1 0,-1 -1,-1 -1,-2 -1,-2 0,-1 1,-2 1,-3 0,-1 0,-1 1,-2 0,0 2,-1 3,-2 2,-1 3,-2 5,-2 2,-1 4,-1 7,-2 2,0 4,-1 7,-1 4,0 8,1 11,2 3,1 6,3 8,4 2,2 3,5 4,8 1,3 1,6 1,10l0 42z"/>
  <path class="fil0" d="M3520 301c0,1 0,1 0,1 0,0 -1,1 -1,1 0,0 -1,0 -2,0 -1,0 -1,0 -3,0 -1,0 -2,0 -2,0 -1,0 -2,0 -2,0 -1,0 -1,-1 -1,-1 0,0 0,0 0,-1l0 -36c0,-4 -1,-7 -1,-9 -1,-2 -1,-4 -3,-6 -1,-1 -2,-3 -4,-3 -1,-1 -3,-2 -5,-2 -3,0 -6,1 -9,3 -3,2 -6,5 -9,9l0 44c0,1 0,1 0,1 0,0 -1,1 -1,1 -1,0 -1,0 -2,0 -1,0 -2,0 -3,0 -1,0 -2,0 -2,0 -1,0 -2,0 -2,0 -1,0 -1,-1 -1,-1 0,0 0,0 0,-1l0 -62c0,-1 0,-1 0,-1 0,-1 0,-1 1,-1 0,0 1,0 1,0 1,-1 2,-1 3,-1 1,0 2,0 2,1 1,0 2,0 2,0 0,0 1,0 1,1 0,0 0,0 0,1l0 8c3,-4 7,-7 10,-9 4,-2 7,-3 11,-3 4,0 8,1 10,3 3,1 5,3 7,5 2,3 3,5 4,9 1,3 1,7 1,11l0 38z"/>
  <path class="fil0" d="M3583 270c0,-3 -1,-6 -1,-9 -1,-3 -1,-6 -3,-8 -1,-2 -2,-4 -4,-6 -2,-1 -5,-2 -8,-2 -1,0 -3,1 -4,1 -2,0 -3,1 -5,2 -1,1 -3,2 -4,4 -2,1 -3,3 -5,6l0 24c3,4 6,7 9,9 2,2 5,3 9,3 2,0 5,0 7,-2 2,-1 4,-3 5,-5 1,-3 2,-5 3,-8 0,-3 1,-6 1,-9zm11 -1c0,5 0,10 -1,15 -2,4 -3,8 -6,11 -2,3 -5,5 -8,7 -3,1 -7,2 -11,2 -2,0 -4,0 -6,0 -1,-1 -3,-1 -4,-2 -2,-1 -3,-2 -5,-3 -1,-1 -3,-3 -4,-4l0 31c0,0 0,1 -1,1 0,0 0,1 0,1 -1,0 -1,0 -2,0 -1,0 -2,0 -3,0 -1,0 -2,0 -3,0 -1,0 -1,0 -2,0 0,0 0,-1 0,-1 -1,0 -1,-1 -1,-1l0 -87c0,-1 0,-1 1,-1 0,-1 0,-1 0,-1 1,0 1,0 2,0 1,-1 1,-1 2,-1 1,0 2,0 3,1 0,0 1,0 1,0 1,0 1,0 1,1 0,0 0,0 0,1l0 8c2,-2 4,-4 6,-5 2,-2 3,-3 5,-4 2,-1 4,-1 6,-2 1,0 3,-1 5,-1 5,0 9,1 12,3 3,2 6,4 8,7 2,3 3,7 4,11 1,4 1,8 1,13z"/>
  <path class="fil0" d="M3643 273l-9 0c-3,0 -6,0 -8,0 -3,1 -5,2 -6,3 -2,1 -3,2 -4,4 0,1 -1,3 -1,5 0,3 1,5 3,7 2,2 5,3 9,3 3,0 6,-1 8,-2 3,-2 6,-4 8,-7l0 -13zm12 28c0,1 -1,1 -1,2 0,0 -1,0 -1,0 -1,0 -2,0 -3,0 -1,0 -2,0 -3,0 -1,0 -1,0 -2,0 0,-1 0,-1 0,-2l0 -6c-3,3 -6,5 -9,7 -4,1 -7,2 -11,2 -3,0 -6,0 -9,-1 -2,-1 -5,-2 -6,-4 -2,-1 -4,-3 -5,-6 -1,-2 -1,-5 -1,-8 0,-3 0,-6 2,-9 1,-3 3,-5 6,-6 3,-2 6,-3 10,-4 4,-1 8,-2 13,-2l8 0 0 -4c0,-3 0,-5 0,-7 -1,-2 -2,-3 -3,-4 -1,-2 -2,-3 -4,-3 -2,-1 -4,-1 -7,-1 -3,0 -5,0 -7,1 -3,0 -5,1 -6,2 -2,1 -3,2 -4,2 -2,1 -2,1 -3,1 0,0 -1,0 -1,0 0,0 0,-1 -1,-1 0,0 0,-1 0,-1 0,-1 0,-2 0,-2 0,-1 0,-2 0,-3 0,-1 1,-1 1,-2 1,0 2,-1 3,-2 2,-1 4,-2 6,-2 2,-1 4,-1 6,-2 2,0 5,-1 7,-1 5,0 8,1 12,2 3,1 5,3 7,4 2,2 4,5 4,8 1,3 2,6 2,10l0 42z"/>
  <path class="fil0" d="M3704 297c0,1 0,2 0,3 0,1 0,1 -1,2 0,0 -1,0 -1,1 -1,0 -2,0 -3,0 -1,1 -2,1 -3,1 -1,0 -2,0 -3,0 -3,0 -6,0 -8,-1 -3,-1 -5,-2 -6,-4 -2,-2 -3,-4 -3,-7 -1,-2 -1,-6 -1,-9l0 -37 -9 0c-1,0 -1,0 -2,-1 0,-1 0,-2 0,-3 0,-1 0,-2 0,-3 0,0 0,-1 0,-1 1,-1 1,-1 1,-1 0,0 1,0 1,0l9 0 0 -15c0,0 0,-1 0,-1 0,0 0,-1 1,-1 0,0 1,0 2,0 0,0 1,0 2,0 2,0 2,0 3,0 1,0 2,0 2,0 0,0 1,1 1,1 0,0 0,1 0,1l0 15 16 0c0,0 1,0 1,0 0,0 1,0 1,1 0,0 0,1 0,1 0,1 0,2 0,3 0,1 0,2 0,3 -1,1 -1,1 -2,1l-16 0 0 35c0,5 1,8 2,10 1,2 4,3 7,3 1,0 2,0 3,0 0,0 1,0 2,-1 0,0 1,0 1,0 1,-1 1,-1 2,-1 0,0 0,0 0,1 1,0 1,0 1,0 0,0 0,1 0,1 0,1 0,2 0,3z"/>
  <path class="fil0" d="M3752 243c0,1 0,2 0,2 0,1 0,2 0,2 0,0 -1,1 -1,1 0,0 0,0 -1,0 0,0 -1,0 -1,0 -1,0 -1,-1 -2,-1 0,0 -1,0 -2,0 -1,-1 -2,-1 -3,-1 -1,0 -2,1 -3,1 -1,0 -2,1 -4,2 -1,1 -2,3 -3,5 -2,1 -3,3 -5,6l0 41c0,1 0,1 0,1 0,0 -1,1 -1,1 0,0 -1,0 -2,0 0,0 -1,0 -3,0 -1,0 -2,0 -2,0 -1,0 -2,0 -2,0 0,0 -1,-1 -1,-1 0,0 0,0 0,-1l0 -62c0,-1 0,-1 0,-1 0,-1 0,-1 1,-1 0,0 1,0 1,0 1,-1 2,-1 3,-1 1,0 2,0 2,1 1,0 2,0 2,0 0,0 1,0 1,1 0,0 0,0 0,1l0 9c2,-3 3,-5 5,-6 1,-2 3,-3 4,-4 1,-1 3,-2 4,-2 1,0 3,-1 4,-1 1,0 1,0 2,1 1,0 2,0 2,0 1,0 2,0 3,1 0,0 1,0 1,0 0,0 1,1 1,1 0,0 0,0 0,1 0,0 0,1 0,1l0 3z"/>
  <path class="fil0" d="M3797 273l-10 0c-3,0 -6,0 -8,0 -2,1 -4,2 -6,3 -1,1 -2,2 -3,4 -1,1 -1,3 -1,5 0,3 1,5 3,7 2,2 5,3 9,3 3,0 5,-1 8,-2 2,-2 5,-4 8,-7l0 -13zm11 28c0,1 0,1 0,2 -1,0 -1,0 -2,0 -1,0 -1,0 -3,0 -1,0 -2,0 -3,0 0,0 -1,0 -1,0 0,-1 -1,-1 -1,-2l0 -6c-2,3 -5,5 -9,7 -3,1 -7,2 -10,2 -4,0 -6,0 -9,-1 -3,-1 -5,-2 -7,-4 -2,-1 -3,-3 -4,-6 -1,-2 -2,-5 -2,-8 0,-3 1,-6 2,-9 2,-3 4,-5 7,-6 2,-2 5,-3 9,-4 4,-1 9,-2 13,-2l9 0 0 -4c0,-3 0,-5 -1,-7 0,-2 -1,-3 -2,-4 -1,-2 -3,-3 -5,-3 -2,-1 -4,-1 -6,-1 -3,0 -6,0 -8,1 -2,0 -4,1 -6,2 -1,1 -3,2 -4,2 -1,1 -2,1 -2,1 -1,0 -1,0 -1,0 -1,0 -1,-1 -1,-1 0,0 0,-1 -1,-1 0,-1 0,-2 0,-2 0,-1 0,-2 1,-3 0,-1 0,-1 1,-2 0,0 1,-1 3,-2 1,-1 3,-2 5,-2 2,-1 4,-1 7,-2 2,0 4,-1 7,-1 4,0 8,1 11,2 3,1 6,3 8,4 2,2 3,5 4,8 1,3 1,6 1,10l0 42z"/>
  <path class="fil0" d="M3871 270c0,-3 0,-7 0,-10 -1,-3 -2,-5 -4,-8 -1,-2 -3,-4 -5,-5 -3,-1 -6,-2 -10,-2 -3,0 -6,1 -8,2 -3,1 -5,3 -6,5 -2,2 -3,5 -4,8 -1,3 -1,6 -1,10 0,3 0,6 1,9 1,3 2,6 3,8 1,2 4,4 6,6 2,1 5,2 9,2 3,0 6,-1 9,-2 2,-1 4,-3 6,-5 1,-3 3,-5 3,-8 1,-3 1,-6 1,-10zm12 -1c0,5 0,10 -2,14 -1,5 -3,8 -6,11 -2,3 -6,6 -10,8 -4,1 -8,2 -13,2 -6,0 -10,-1 -14,-2 -4,-2 -7,-4 -9,-7 -3,-3 -5,-6 -6,-10 -1,-5 -2,-9 -2,-15 0,-5 1,-9 2,-14 1,-4 3,-8 6,-11 3,-3 6,-5 10,-7 4,-2 9,-3 14,-3 5,0 9,1 13,3 4,1 7,4 10,6 2,3 4,7 5,11 2,4 2,9 2,14z"/>
  <path class="fil0" d="M3984 301c0,0 0,1 0,1 0,0 0,0 -1,1 0,0 -1,0 -2,0 -1,0 -1,0 -3,0 -1,0 -3,0 -4,0 -1,0 -1,0 -2,-1 0,0 -1,0 -1,-1l-33 -45 0 45c0,0 0,1 0,1 0,0 -1,1 -1,1 -1,0 -1,0 -2,0 -1,0 -2,0 -3,0 -1,0 -2,0 -3,0 -1,0 -1,0 -2,0 0,0 0,-1 -1,-1 0,0 0,-1 0,-1l0 -86c0,-1 0,-1 0,-1 1,-1 1,-1 1,-1 1,0 1,0 2,0 1,0 2,-1 3,-1 1,0 2,1 3,1 1,0 1,0 2,0 0,0 1,0 1,1 0,0 0,0 0,1l0 40 32 -40c0,-1 0,-1 1,-1 0,-1 0,-1 1,-1 0,0 1,0 2,0 1,0 2,-1 3,-1 1,0 2,1 3,1 0,0 1,0 1,0 1,0 1,1 1,1 0,0 1,0 1,1 0,0 -1,1 -1,2 0,0 -1,1 -2,2l-29 36 32 42c0,2 1,2 1,3 0,0 0,1 0,1z"/>
  <path class="fil0" d="M4030 273l-10 0c-3,0 -5,0 -8,0 -2,1 -4,2 -5,3 -2,1 -3,2 -4,4 -1,1 -1,3 -1,5 0,3 1,5 3,7 2,2 5,3 9,3 3,0 5,-1 8,-2 3,-2 5,-4 8,-7l0 -13zm11 28c0,1 0,1 0,2 -1,0 -1,0 -2,0 0,0 -1,0 -3,0 -1,0 -2,0 -2,0 -1,0 -2,0 -2,0 0,-1 0,-1 0,-2l0 -6c-3,3 -6,5 -9,7 -4,1 -7,2 -11,2 -3,0 -6,0 -9,-1 -3,-1 -5,-2 -7,-4 -2,-1 -3,-3 -4,-6 -1,-2 -2,-5 -2,-8 0,-3 1,-6 3,-9 1,-3 3,-5 6,-6 2,-2 6,-3 10,-4 3,-1 8,-2 13,-2l8 0 0 -4c0,-3 0,-5 -1,-7 0,-2 -1,-3 -2,-4 -1,-2 -3,-3 -4,-3 -2,-1 -4,-1 -7,-1 -3,0 -5,0 -8,1 -2,0 -4,1 -6,2 -1,1 -3,2 -4,2 -1,1 -2,1 -2,1 -1,0 -1,0 -1,0 0,0 -1,-1 -1,-1 0,0 0,-1 0,-1 0,-1 -1,-2 -1,-2 0,-1 1,-2 1,-3 0,-1 0,-1 1,-2 0,0 2,-1 3,-2 2,-1 3,-2 5,-2 2,-1 4,-1 7,-2 2,0 5,-1 7,-1 4,0 8,1 11,2 3,1 6,3 8,4 2,2 3,5 4,8 1,3 1,6 1,10l0 42z"/>
  <path class="fil0" d="M4100 257c-3,-4 -6,-7 -8,-9 -3,-2 -6,-3 -10,-3 -2,0 -5,1 -7,2 -2,2 -4,4 -5,6 -1,2 -2,5 -3,8 0,3 0,5 0,8 0,4 0,7 0,10 1,3 2,5 3,8 1,2 3,4 5,5 2,2 4,2 7,2 2,0 3,0 4,0 2,-1 3,-1 5,-2 1,-1 3,-3 4,-4 2,-2 4,-4 5,-6l0 -25zm12 44c0,1 0,1 0,1 -1,0 -1,1 -1,1 -1,0 -1,0 -2,0 0,0 -1,0 -2,0 -1,0 -2,0 -3,0 0,0 -1,0 -1,0 -1,0 -1,-1 -1,-1 0,0 0,0 0,-1l0 -8c-4,3 -7,6 -10,8 -4,2 -8,3 -12,3 -5,0 -8,-1 -12,-2 -3,-2 -5,-5 -7,-8 -2,-3 -4,-6 -5,-10 -1,-4 -1,-9 -1,-13 0,-6 0,-11 2,-15 1,-4 2,-8 5,-11 2,-3 5,-5 8,-7 3,-2 7,-3 12,-3 3,0 6,1 10,3 3,1 5,4 8,7l0 -36c0,-1 1,-1 1,-1 0,-1 0,-1 1,-1 0,0 1,0 1,-1 1,0 2,0 3,0 1,0 2,0 3,0 1,1 1,1 2,1 0,0 0,0 1,1 0,0 0,0 0,1l0 92z"/>
  <path class="fil0" d="M4165 273l-10 0c-3,0 -6,0 -8,0 -2,1 -4,2 -6,3 -1,1 -2,2 -3,4 -1,1 -1,3 -1,5 0,3 1,5 3,7 2,2 5,3 8,3 3,0 6,-1 9,-2 2,-2 5,-4 8,-7l0 -13zm11 28c0,1 0,1 0,2 -1,0 -1,0 -2,0 -1,0 -2,0 -3,0 -1,0 -2,0 -3,0 0,0 -1,0 -1,0 -1,-1 -1,-1 -1,-2l0 -6c-2,3 -5,5 -9,7 -3,1 -7,2 -10,2 -4,0 -7,0 -9,-1 -3,-1 -5,-2 -7,-4 -2,-1 -3,-3 -4,-6 -1,-2 -2,-5 -2,-8 0,-3 1,-6 2,-9 2,-3 4,-5 6,-6 3,-2 6,-3 10,-4 4,-1 8,-2 13,-2l9 0 0 -4c0,-3 0,-5 -1,-7 0,-2 -1,-3 -2,-4 -2,-2 -3,-3 -5,-3 -2,-1 -4,-1 -6,-1 -3,0 -6,0 -8,1 -2,0 -4,1 -6,2 -1,1 -3,2 -4,2 -1,1 -2,1 -3,1 0,0 0,0 -1,0 0,0 0,-1 0,-1 0,0 -1,-1 -1,-1 0,-1 0,-2 0,-2 0,-1 0,-2 0,-3 1,-1 1,-1 2,-2 0,0 1,-1 3,-2 1,-1 3,-2 5,-2 2,-1 4,-1 7,-2 2,0 4,-1 7,-1 4,0 8,1 11,2 3,1 6,3 8,4 1,2 3,5 4,8 1,3 1,6 1,10l0 42z"/>
  <path class="fil0" d="M4285 301c0,1 0,1 0,1 0,0 0,1 -1,1 0,0 -1,0 -1,0 -1,0 -2,0 -3,0 -1,0 -2,0 -3,0 -1,0 -1,0 -2,0 0,0 -1,-1 -1,-1 0,0 0,0 0,-1l0 -38c0,-3 0,-5 -1,-7 0,-2 -1,-4 -2,-6 -1,-1 -2,-3 -4,-3 -1,-1 -3,-2 -5,-2 -3,0 -6,1 -8,3 -3,2 -6,5 -9,9l0 44c0,1 0,1 0,1 0,0 -1,1 -1,1 0,0 -1,0 -2,0 -1,0 -2,0 -3,0 -1,0 -2,0 -2,0 -1,0 -2,0 -2,0 -1,0 -1,-1 -1,-1 0,0 0,0 0,-1l0 -38c0,-3 0,-5 -1,-7 0,-2 -1,-4 -2,-6 -1,-1 -3,-3 -4,-3 -2,-1 -3,-2 -6,-2 -2,0 -5,1 -8,3 -2,2 -5,5 -8,9l0 44c0,1 0,1 0,1 -1,0 -1,1 -1,1 -1,0 -1,0 -2,0 -1,0 -2,0 -3,0 -1,0 -2,0 -3,0 0,0 -1,0 -1,0 -1,0 -1,-1 -1,-1 -1,0 -1,0 -1,-1l0 -62c0,-1 0,-1 1,-1 0,-1 0,-1 0,-1 1,0 1,0 2,0 1,-1 2,-1 3,-1 1,0 1,0 2,1 1,0 1,0 2,0 0,0 0,0 0,1 1,0 1,0 1,1l0 8c3,-4 7,-7 10,-9 3,-2 6,-3 10,-3 2,0 5,1 7,1 2,1 4,2 5,3 2,1 3,2 4,4 1,1 2,3 3,5 2,-2 4,-4 6,-6 2,-2 3,-3 5,-4 2,-1 4,-1 5,-2 2,0 3,-1 5,-1 4,0 8,1 10,3 3,1 5,3 7,5 1,3 3,5 3,9 1,3 1,6 1,10l0 39z"/>
  <path class="fil0" d="M4429 301c0,0 0,1 0,1 0,0 0,1 -1,1 0,0 -1,0 -2,0 0,0 -1,0 -3,0 -1,0 -2,0 -2,0 -1,0 -2,0 -2,0 -1,0 -1,-1 -1,-1 0,0 -1,-1 -1,-1l0 -78 0 0 -31 78c0,1 0,1 -1,1 0,1 0,1 -1,1 0,0 -1,0 -1,0 -1,0 -2,0 -3,0 -1,0 -2,0 -2,0 -1,0 -2,0 -2,0 -1,0 -1,-1 -1,-1 0,0 -1,0 -1,-1l-30 -78 0 0 0 78c0,0 0,1 0,1 0,0 -1,1 -1,1 -1,0 -1,0 -2,0 -1,0 -2,0 -3,0 -1,0 -2,0 -3,0 0,0 -1,0 -1,0 -1,0 -1,-1 -1,-1 -1,0 -1,-1 -1,-1l0 -83c0,-2 1,-3 2,-4 1,-1 2,-1 3,-1l8 0c1,0 2,0 4,0 1,1 2,1 2,2 1,0 2,1 3,2 0,1 1,2 1,3l25 65 1 0 26 -65c1,-1 1,-2 2,-3 1,-1 1,-2 2,-2 1,-1 2,-1 3,-2 0,0 1,0 3,0l7 0c1,0 2,0 2,0 1,0 1,1 2,1 0,1 1,1 1,2 0,1 0,1 0,2l0 83z"/>
  <path class="fil0" d="M4484 273l-10 0c-3,0 -6,0 -8,0 -3,1 -4,2 -6,3 -1,1 -3,2 -3,4 -1,1 -1,3 -1,5 0,3 1,5 3,7 2,2 5,3 8,3 3,0 6,-1 9,-2 2,-2 5,-4 8,-7l0 -13zm11 28c0,1 0,1 -1,2 0,0 -1,0 -1,0 -1,0 -2,0 -3,0 -1,0 -2,0 -3,0 -1,0 -1,0 -1,0 -1,-1 -1,-1 -1,-2l0 -6c-3,3 -6,5 -9,7 -3,1 -7,2 -11,2 -3,0 -6,0 -8,-1 -3,-1 -5,-2 -7,-4 -2,-1 -3,-3 -4,-6 -2,-2 -2,-5 -2,-8 0,-3 1,-6 2,-9 2,-3 4,-5 6,-6 3,-2 6,-3 10,-4 4,-1 8,-2 13,-2l9 0 0 -4c0,-3 -1,-5 -1,-7 -1,-2 -1,-3 -3,-4 -1,-2 -2,-3 -4,-3 -2,-1 -4,-1 -7,-1 -2,0 -5,0 -7,1 -2,0 -4,1 -6,2 -2,1 -3,2 -4,2 -1,1 -2,1 -3,1 0,0 0,0 -1,0 0,0 0,-1 0,-1 -1,0 -1,-1 -1,-1 0,-1 0,-2 0,-2 0,-1 0,-2 0,-3 0,-1 1,-1 1,-2 1,0 2,-1 4,-2 1,-1 3,-2 5,-2 2,-1 4,-1 6,-2 3,0 5,-1 7,-1 5,0 9,1 12,2 3,1 5,3 7,4 2,2 4,5 5,8 0,3 1,6 1,10l0 42z"/>
  <path class="fil0" d="M4549 243c0,1 0,2 -1,2 0,1 0,2 0,2 0,0 0,1 0,1 -1,0 -1,0 -1,0 -1,0 -1,0 -2,0 0,0 -1,-1 -1,-1 -1,0 -2,0 -3,0 0,-1 -1,-1 -2,-1 -1,0 -3,1 -4,1 -1,0 -2,1 -3,2 -1,1 -3,3 -4,5 -1,1 -3,3 -4,6l0 41c0,1 0,1 -1,1 0,0 0,1 0,1 -1,0 -2,0 -2,0 -1,0 -2,0 -3,0 -1,0 -2,0 -3,0 -1,0 -1,0 -2,0 0,0 0,-1 0,-1 -1,0 -1,0 -1,-1l0 -62c0,-1 0,-1 0,-1 1,-1 1,-1 1,-1 1,0 1,0 2,0 1,-1 1,-1 2,-1 1,0 2,0 3,1 1,0 1,0 1,0 1,0 1,0 1,1 0,0 1,0 1,1l0 9c1,-3 3,-5 4,-6 2,-2 3,-3 5,-4 1,-1 2,-2 4,-2 1,0 2,-1 4,-1 0,0 1,0 2,1 0,0 1,0 2,0 1,0 1,0 2,1 1,0 1,0 2,0 0,0 0,1 0,1 0,0 0,0 0,1 0,0 0,1 1,1l0 3z"/>
  <path class="fil0" d="M4592 258c0,-4 -1,-8 -3,-10 -3,-2 -6,-4 -10,-4 -3,0 -4,1 -6,1 -2,1 -3,2 -4,4 -1,1 -2,2 -3,4 0,2 0,3 0,5 0,4 1,8 3,10 2,2 6,4 10,4 2,0 4,-1 6,-1 1,-1 3,-2 4,-3 1,-2 2,-3 2,-5 1,-2 1,-3 1,-5zm6 50c0,-3 -1,-5 -4,-7 -2,-1 -5,-2 -8,-2l-16 -1c-2,2 -3,3 -4,4 -1,1 -2,2 -2,3 -1,1 -1,2 -1,3 -1,0 -1,1 -1,2 0,3 2,6 5,7 3,2 7,3 12,3 4,0 7,-1 9,-1 2,-1 4,-2 6,-3 1,-1 2,-3 3,-4 0,-1 1,-3 1,-4zm12 -67c0,2 0,3 -1,4 0,1 -1,1 -2,1l-8 0c1,2 2,4 3,6 1,2 1,4 1,6 0,3 -1,7 -2,9 -1,3 -3,6 -5,7 -2,2 -4,4 -7,5 -3,1 -7,1 -10,1 -3,0 -5,0 -7,-1 -3,0 -4,-1 -6,-2 0,1 -1,2 -2,3 0,1 0,2 0,3 0,2 0,3 2,4 1,2 3,2 6,2l16 1c3,0 6,0 8,1 3,1 5,2 7,3 2,2 3,4 5,6 1,2 1,4 1,7 0,3 -1,5 -2,8 -1,3 -3,5 -5,7 -3,2 -6,3 -10,5 -3,1 -8,1 -13,1 -5,0 -9,0 -13,-1 -3,-1 -6,-2 -9,-3 -2,-2 -3,-4 -4,-6 -1,-2 -2,-4 -2,-7 0,-1 0,-3 1,-4 0,-1 1,-3 1,-4 1,-1 2,-3 3,-4 1,-1 3,-2 4,-3 -2,-1 -4,-3 -5,-5 -1,-1 -2,-3 -2,-5 0,-3 1,-6 2,-8 1,-2 3,-4 4,-6 -1,-2 -2,-4 -3,-6 -1,-2 -1,-5 -1,-8 0,-3 0,-6 2,-9 1,-3 2,-5 5,-7 2,-2 4,-4 7,-5 3,-1 6,-1 10,-1 2,0 3,0 5,0 2,0 3,0 5,1l18 0c1,0 2,0 2,1 1,1 1,2 1,3z"/>
  <path class="fil0" d="M4636 293c0,1 0,3 0,4 0,1 -1,2 -1,3 0,1 -1,2 -1,4 -1,1 -1,2 -2,3l-10 14c0,0 0,1 0,1 -1,0 -1,0 -2,1 0,0 -1,0 -1,0 -1,0 -1,0 -2,0 -1,0 -2,0 -2,0 -1,0 -1,0 -1,0 -1,-1 -1,-1 -1,-1 0,0 0,-1 1,-1l9 -19 0 -9c0,-1 0,-2 0,-3 0,-1 1,-1 1,-2 1,0 1,0 2,0 1,-1 2,-1 3,-1 1,0 2,0 3,1 1,0 2,0 2,0 1,1 1,1 1,2 1,1 1,2 1,3z"/>
  <path class="fil0" d="M53 461c0,0 0,1 0,2 -1,0 -1,1 -1,1 0,1 0,1 -1,1 0,1 0,1 -1,1l-39 0c-1,0 -2,-1 -3,-1 -1,-1 -2,-2 -2,-4l0 -83c0,-1 1,-1 1,-1 0,-1 0,-1 1,-1 0,0 1,0 2,-1 0,0 1,0 2,0 1,0 2,0 3,0 1,1 2,1 2,1 1,0 1,0 1,1 0,0 0,0 0,1l0 77 32 0c1,0 1,0 1,1 1,0 1,0 1,1 0,0 0,1 1,1 0,1 0,2 0,3z"/>
  <path class="fil0" d="M107 433c0,-4 -1,-7 -1,-10 -1,-3 -2,-5 -3,-8 -2,-2 -4,-4 -6,-5 -3,-1 -6,-2 -9,-2 -4,0 -7,0 -9,2 -2,1 -4,3 -6,5 -2,2 -3,5 -3,8 -1,3 -2,6 -2,9 0,4 1,7 1,10 1,3 2,6 3,8 2,2 4,4 6,5 3,2 6,2 9,2 4,0 7,0 9,-1 3,-2 5,-3 6,-6 2,-2 3,-4 4,-7 0,-3 1,-7 1,-10zm12 -1c0,5 -1,10 -2,14 -2,4 -4,8 -6,11 -3,3 -6,6 -10,7 -4,2 -9,3 -14,3 -5,0 -10,-1 -13,-2 -4,-2 -7,-4 -10,-7 -2,-3 -4,-6 -6,-11 -1,-4 -1,-8 -1,-14 0,-5 0,-10 2,-14 1,-4 3,-8 5,-11 3,-3 6,-5 10,-7 4,-2 9,-3 14,-3 5,0 10,1 14,3 3,1 6,3 9,6 3,3 4,7 6,11 1,4 2,9 2,14z"/>
  <path class="fil0" d="M219 401c0,1 0,1 -1,1 0,1 0,1 0,2l-18 60c0,0 -1,1 -1,1 0,0 -1,0 -1,1 -1,0 -1,0 -2,0 -1,0 -2,0 -4,0 -1,0 -2,0 -3,0 -1,0 -2,0 -3,0 0,-1 -1,-1 -1,-1 0,-1 0,-1 -1,-1l-13 -46 0 0 0 0 -12 46c0,0 0,1 -1,1 0,0 0,0 -1,1 -1,0 -1,0 -2,0 -1,0 -2,0 -4,0 -1,0 -2,0 -3,0 -1,0 -2,0 -2,0 -1,-1 -1,-1 -2,-1 0,-1 0,-1 0,-1l-18 -60c-1,-1 -1,-1 -1,-2 0,0 0,0 0,-1 0,0 0,-1 0,-1 0,0 1,0 1,0 1,-1 1,-1 2,-1 1,0 2,0 3,0 1,0 2,0 3,0 0,0 1,1 1,1 1,0 1,0 1,0 1,1 1,1 1,1l15 52 0 1 0 -1 14 -52c0,0 0,0 0,-1 0,0 1,0 1,0 1,0 1,-1 2,-1 1,0 2,0 3,0 1,0 2,0 2,0 1,0 2,1 2,1 0,0 1,0 1,0 0,1 0,1 0,1l15 52 0 1 0 -1 15 -52c0,0 0,0 1,-1 0,0 0,0 1,0 0,0 1,-1 1,-1 1,0 2,0 3,0 1,0 2,0 3,0 1,0 1,0 2,1 0,0 0,0 0,0 1,0 1,1 1,1z"/>
  <path class="fil0" d="M271 427c0,-6 -1,-11 -4,-15 -3,-3 -7,-5 -13,-5 -3,0 -5,1 -7,2 -2,1 -4,2 -5,4 -2,2 -3,4 -4,6 -1,3 -1,5 -1,8l34 0zm11 3c0,2 0,3 -1,4 -1,1 -2,1 -3,1l-41 0c0,3 0,7 1,9 1,3 2,6 3,8 2,2 4,3 7,4 2,1 5,2 9,2 3,0 6,0 8,-1 2,-1 4,-1 6,-2 2,0 3,-1 4,-1 1,-1 2,-1 3,-1 0,0 0,0 1,0 0,0 0,1 0,1 0,0 0,1 0,1 0,1 0,2 0,2 0,1 0,2 0,2 0,0 0,1 0,1 0,1 0,1 0,1 0,0 0,1 -1,1 0,0 -1,1 -2,1 -1,1 -3,1 -5,2 -2,0 -4,1 -7,1 -2,1 -5,1 -8,1 -5,0 -9,-1 -13,-2 -4,-2 -7,-4 -10,-7 -3,-2 -5,-6 -6,-10 -1,-4 -2,-9 -2,-15 0,-5 1,-10 2,-15 2,-4 3,-7 6,-10 3,-3 6,-6 10,-7 3,-2 7,-3 12,-3 5,0 9,1 12,3 4,1 7,3 9,6 2,3 4,6 5,9 1,4 1,8 1,12l0 2z"/>
  <path class="fil0" d="M332 405c0,1 0,2 0,3 0,1 0,1 0,2 0,0 -1,0 -1,1 0,0 0,0 -1,0 0,0 0,0 -1,0 0,-1 -1,-1 -2,-1 0,0 -1,0 -2,-1 -1,0 -2,0 -3,0 -1,0 -2,0 -3,1 -1,0 -2,1 -3,2 -2,1 -3,3 -4,4 -2,2 -3,4 -5,7l0 41c0,0 0,1 0,1 0,0 0,0 -1,1 0,0 -1,0 -2,0 0,0 -1,0 -2,0 -2,0 -2,0 -3,0 -1,0 -2,0 -2,0 0,-1 -1,-1 -1,-1 0,0 0,-1 0,-1l0 -63c0,0 0,0 0,-1 0,0 1,0 1,0 0,0 1,-1 1,-1 1,0 2,0 3,0 1,0 2,0 3,0 0,0 1,1 1,1 1,0 1,0 1,0 0,1 0,1 0,1l0 10c2,-3 3,-5 5,-7 1,-1 3,-2 4,-3 2,-1 3,-2 4,-2 1,-1 3,-1 4,-1 1,0 1,0 2,0 1,0 2,1 3,1 0,0 1,0 2,0 0,1 1,1 1,1 0,0 1,1 1,1 0,0 0,0 0,1 0,0 0,0 0,1l0 2z"/>
  <path class="fil0" d="M414 403c0,-4 -1,-7 -2,-9 -2,-3 -3,-4 -5,-6 -2,-1 -5,-2 -7,-2 -2,0 -4,0 -6,0l-11 0 0 36 11 0c3,0 6,-1 9,-2 2,-1 4,-2 6,-4 1,-1 3,-3 3,-5 1,-3 2,-5 2,-8zm12 -1c0,5 -1,9 -2,12 -2,4 -4,7 -6,10 -3,2 -7,4 -11,5 -3,2 -8,2 -14,2l-10 0 0 33c0,0 0,1 0,1 0,0 -1,0 -1,1 -1,0 -1,0 -2,0 -1,0 -2,0 -3,0 -1,0 -2,0 -3,0 0,0 -1,0 -1,0 -1,-1 -1,-1 -1,-1 -1,0 -1,-1 -1,-1l0 -83c0,-2 1,-3 2,-4 1,-1 2,-1 3,-1l19 0c2,0 4,0 6,0 1,0 3,0 6,1 2,1 5,2 7,3 3,1 5,3 7,5 1,3 3,5 4,8 1,3 1,6 1,9z"/>
  <path class="fil0" d="M475 435l-10 0c-3,0 -6,1 -8,1 -2,1 -4,2 -6,3 -1,1 -2,2 -3,3 -1,2 -1,4 -1,5 0,4 1,6 3,8 2,2 5,3 8,3 3,0 6,-1 9,-2 2,-2 5,-4 8,-7l0 -14zm11 29c0,1 0,1 0,1 -1,1 -1,1 -2,1 -1,0 -2,0 -3,0 -1,0 -2,0 -3,0 0,0 -1,0 -1,-1 -1,0 -1,0 -1,-1l0 -6c-2,3 -5,5 -9,7 -3,1 -7,2 -10,2 -4,0 -7,0 -9,-1 -3,-1 -5,-2 -7,-4 -2,-2 -3,-4 -4,-6 -1,-2 -2,-5 -2,-8 0,-4 1,-7 2,-9 2,-3 4,-5 6,-7 3,-1 6,-3 10,-4 4,0 8,-1 13,-1l9 0 0 -5c0,-2 0,-4 -1,-6 0,-2 -1,-3 -2,-5 -2,-1 -3,-2 -5,-2 -2,-1 -4,-1 -6,-1 -3,0 -6,0 -8,1 -2,0 -4,1 -6,2 -1,1 -3,1 -4,2 -1,1 -2,1 -3,1 0,0 0,0 0,0 -1,0 -1,-1 -1,-1 0,0 -1,-1 -1,-1 0,-1 0,-2 0,-2 0,-2 0,-2 0,-3 1,-1 1,-1 2,-2 0,-1 1,-1 3,-2 1,-1 3,-2 5,-2 2,-1 4,-2 7,-2 2,-1 4,-1 7,-1 4,0 8,1 11,2 3,1 6,2 8,4 1,2 3,5 4,8 1,3 1,6 1,10l0 42z"/>
  <path class="fil0" d="M540 405c0,1 0,2 0,3 0,1 -1,1 -1,2 0,0 0,0 0,1 0,0 -1,0 -1,0 0,0 -1,0 -1,0 -1,-1 -1,-1 -2,-1 -1,0 -2,0 -2,-1 -1,0 -2,0 -3,0 -1,0 -2,0 -3,1 -2,0 -3,1 -4,2 -1,1 -2,3 -4,4 -1,2 -3,4 -4,7l0 41c0,0 0,1 0,1 -1,0 -1,0 -1,1 -1,0 -1,0 -2,0 -1,0 -2,0 -3,0 -1,0 -2,0 -3,0 0,0 -1,0 -1,0 -1,-1 -1,-1 -1,-1 0,0 -1,-1 -1,-1l0 -63c0,0 0,0 1,-1 0,0 0,0 0,0 1,0 1,-1 2,-1 1,0 2,0 3,0 1,0 1,0 2,0 1,0 1,1 2,1 0,0 0,0 0,0 1,1 1,1 1,1l0 10c1,-3 3,-5 4,-7 2,-1 3,-2 5,-3 1,-1 2,-2 4,-2 1,-1 2,-1 4,-1 0,0 1,0 2,0 0,0 1,1 2,1 1,0 2,0 2,0 1,1 1,1 2,1 0,0 0,1 0,1 0,0 0,0 1,1 0,0 0,0 0,1 0,1 0,1 0,2z"/>
  <path class="fil0" d="M591 427c0,-6 -2,-11 -4,-15 -3,-3 -7,-5 -13,-5 -3,0 -5,1 -7,2 -2,1 -4,2 -6,4 -1,2 -2,4 -3,6 -1,3 -1,5 -1,8l34 0zm11 3c0,2 0,3 -1,4 -1,1 -2,1 -3,1l-41 0c0,3 0,7 1,9 1,3 2,6 3,8 2,2 4,3 7,4 2,1 5,2 9,2 3,0 6,0 8,-1 2,-1 4,-1 6,-2 2,0 3,-1 4,-1 1,-1 2,-1 3,-1 0,0 0,0 0,0 1,0 1,1 1,1 0,0 0,1 0,1 0,1 0,2 0,2 0,1 0,2 0,2 0,0 0,1 0,1 0,1 0,1 0,1 0,0 -1,1 -1,1 0,0 -1,1 -2,1 -1,1 -3,1 -5,2 -2,0 -4,1 -7,1 -2,1 -5,1 -8,1 -5,0 -10,-1 -13,-2 -4,-2 -7,-4 -10,-7 -3,-2 -5,-6 -6,-10 -1,-4 -2,-9 -2,-15 0,-5 1,-10 2,-15 1,-4 3,-7 6,-10 3,-3 6,-6 9,-7 4,-2 8,-3 13,-3 5,0 9,1 12,3 4,1 6,3 9,6 2,3 3,6 4,9 2,4 2,8 2,12l0 2z"/>
  <path class="fil0" d="M627 464c0,0 0,1 0,1 0,0 -1,0 -1,1 0,0 -1,0 -2,0 0,0 -1,0 -3,0 -1,0 -2,0 -2,0 -1,0 -2,0 -2,0 0,-1 -1,-1 -1,-1 0,0 0,-1 0,-1l0 -93c0,0 0,-1 0,-1 0,0 1,0 1,-1 0,0 1,0 2,0 0,0 1,0 2,0 2,0 3,0 3,0 1,0 2,0 2,0 0,1 1,1 1,1 0,0 0,1 0,1l0 93z"/>
  <path class="fil0" d="M660 456c0,1 0,3 -1,4 0,1 0,2 0,3 0,1 -1,2 -1,3 -1,1 -2,2 -2,4l-10 14c0,0 0,1 -1,1 0,0 0,0 -1,0 0,1 -1,1 -1,1 -1,0 -2,0 -2,0 -1,0 -2,0 -2,0 -1,0 -1,0 -2,-1 0,0 0,0 0,0 0,0 0,-1 0,-1l9 -19 0 -9c0,-1 1,-2 1,-3 0,-1 1,-2 1,-2 1,0 1,-1 2,-1 1,0 2,0 3,0 1,0 2,0 3,0 1,0 2,1 2,1 1,0 1,1 1,2 1,1 1,2 1,3z"/>
  <path class="fil0" d="M803 464c0,0 0,1 0,1 0,0 -1,0 -1,1 -1,0 -1,0 -2,0 -1,0 -2,0 -3,0 -1,0 -2,0 -3,0 0,0 -1,0 -2,0 0,-1 0,-1 -1,-1 0,0 0,-1 0,-1l0 -78 0 0 -31 78c-1,1 -1,1 -1,1 0,0 -1,1 -1,1 -1,0 -1,0 -2,0 0,0 -1,0 -2,0 -1,0 -2,0 -3,0 0,0 -1,0 -1,0 -1,-1 -1,-1 -1,-1 -1,0 -1,0 -1,-1l-30 -78 0 0 0 78c0,0 0,1 0,1 -1,0 -1,0 -1,1 -1,0 -1,0 -2,0 -1,0 -2,0 -3,0 -1,0 -2,0 -3,0 -1,0 -1,0 -2,0 0,-1 -1,-1 -1,-1 0,0 0,-1 0,-1l0 -83c0,-2 1,-3 2,-4 1,-1 2,-1 3,-1l7 0c2,0 3,0 4,0 1,0 2,1 3,1 1,1 2,2 2,3 1,1 1,2 2,3l25 65 1 0 26 -65c1,-1 1,-2 2,-3 0,-1 1,-2 2,-3 1,0 1,-1 2,-1 1,0 2,0 3,0l8 0c1,0 1,0 2,0 1,0 1,1 2,1 0,0 0,1 1,2 0,0 0,1 0,2l0 83z"/>
  <path class="fil0" d="M875 464c0,0 0,1 0,1 0,0 -1,0 -1,1 0,0 -1,0 -2,0 0,0 -1,0 -2,0 -1,0 -2,0 -3,0 0,0 -1,0 -1,0 -1,-1 -1,-1 -1,-1 0,0 0,-1 0,-1l0 -8c-4,4 -7,7 -11,8 -3,2 -7,3 -10,3 -4,0 -8,-1 -11,-2 -3,-1 -5,-3 -7,-6 -1,-2 -3,-5 -3,-8 -1,-3 -1,-7 -1,-12l0 -38c0,0 0,0 0,-1 0,0 0,0 1,0 0,0 1,-1 2,-1 0,0 1,0 2,0 1,0 2,0 3,0 1,0 1,1 2,1 0,0 1,0 1,0 0,1 0,1 0,1l0 37c0,3 0,6 1,9 0,2 1,4 2,5 1,2 3,3 4,4 2,1 4,1 6,1 3,0 6,-1 9,-3 2,-2 5,-5 9,-9l0 -44c0,0 0,0 0,-1 0,0 0,0 1,0 0,0 1,-1 2,-1 0,0 1,0 2,0 1,0 2,0 3,0 1,0 1,1 2,1 0,0 1,0 1,0 0,1 0,1 0,1l0 63z"/>
  <path class="fil0" d="M985 464c0,0 -1,1 -1,1 0,0 0,0 -1,1 0,0 -1,0 -1,0 -1,0 -2,0 -3,0 -1,0 -2,0 -3,0 -1,0 -1,0 -2,0 0,-1 0,-1 -1,-1 0,0 0,-1 0,-1l0 -38c0,-3 0,-5 -1,-7 0,-2 -1,-4 -2,-6 -1,-1 -2,-3 -4,-4 -1,0 -3,-1 -5,-1 -3,0 -5,1 -8,3 -3,2 -6,5 -9,9l0 44c0,0 0,1 0,1 0,0 -1,0 -1,1 0,0 -1,0 -2,0 0,0 -1,0 -2,0 -2,0 -2,0 -3,0 -1,0 -2,0 -2,0 0,-1 -1,-1 -1,-1 0,0 0,-1 0,-1l0 -38c0,-3 0,-5 -1,-7 0,-2 -1,-4 -2,-6 -1,-1 -2,-3 -4,-4 -2,0 -3,-1 -5,-1 -3,0 -6,1 -8,3 -3,2 -6,5 -9,9l0 44c0,0 0,1 0,1 -1,0 -1,0 -1,1 -1,0 -1,0 -2,0 -1,0 -2,0 -3,0 -1,0 -2,0 -3,0 0,0 -1,0 -1,0 -1,-1 -1,-1 -1,-1 0,0 0,-1 0,-1l0 -63c0,0 0,0 0,-1 0,0 0,0 1,0 0,0 1,-1 1,-1 1,0 2,0 3,0 1,0 2,0 2,0 1,0 1,1 2,1 0,0 0,0 1,0 0,1 0,1 0,1l0 9c3,-4 7,-7 10,-9 3,-2 7,-3 10,-3 3,0 5,1 7,1 2,1 4,2 5,3 2,1 3,2 4,4 1,1 2,3 3,5 2,-3 4,-5 6,-6 2,-2 4,-3 5,-4 2,-1 4,-2 5,-2 2,-1 4,-1 5,-1 4,0 8,1 10,2 3,2 5,4 7,6 2,2 3,5 3,8 1,4 2,7 2,10l0 40z"/>
  <path class="fil0" d="M1047 433c0,-3 0,-6 -1,-9 0,-3 -1,-6 -2,-8 -1,-2 -3,-4 -5,-6 -2,-1 -4,-2 -7,-2 -2,0 -3,0 -5,1 -1,0 -3,1 -4,2 -2,1 -3,2 -5,4 -1,1 -3,3 -5,5l0 25c3,4 6,7 9,9 3,2 6,3 9,3 3,0 5,-1 7,-2 3,-1 4,-3 5,-5 2,-3 3,-5 3,-8 1,-3 1,-6 1,-9zm12 -1c0,5 -1,10 -2,14 -1,5 -3,9 -5,12 -2,3 -5,5 -8,7 -4,1 -8,2 -12,2 -2,0 -4,0 -5,-1 -2,0 -4,-1 -5,-1 -2,-1 -3,-2 -5,-4 -2,-1 -3,-3 -5,-5l0 8c0,0 0,1 0,1 -1,0 -1,0 -1,1 -1,0 -1,0 -2,0 -1,0 -1,0 -2,0 -1,0 -2,0 -3,0 0,0 -1,0 -1,0 -1,-1 -1,-1 -1,-1 0,0 0,-1 0,-1l0 -93c0,0 0,-1 0,-1 0,0 0,0 1,-1 0,0 1,0 2,0 0,0 1,0 2,0 2,0 3,0 3,0 1,0 2,0 2,0 0,1 1,1 1,1 0,0 0,1 0,1l0 38c2,-2 4,-4 5,-5 2,-2 4,-3 6,-3 1,-1 3,-2 5,-2 1,-1 3,-1 5,-1 4,0 8,1 11,3 3,2 6,4 8,7 2,3 4,7 4,11 1,4 2,8 2,13z"/>
  <path class="fil0" d="M1108 435l-10 0c-3,0 -6,1 -8,1 -2,1 -4,2 -6,3 -1,1 -2,2 -3,3 -1,2 -1,4 -1,5 0,4 1,6 3,8 2,2 5,3 8,3 3,0 6,-1 9,-2 2,-2 5,-4 8,-7l0 -14zm11 29c0,1 0,1 0,1 -1,1 -1,1 -2,1 -1,0 -2,0 -3,0 -1,0 -2,0 -3,0 0,0 -1,0 -1,-1 0,0 -1,0 -1,-1l0 -6c-2,3 -5,5 -9,7 -3,1 -7,2 -10,2 -4,0 -7,0 -9,-1 -3,-1 -5,-2 -7,-4 -2,-2 -3,-4 -4,-6 -1,-2 -2,-5 -2,-8 0,-4 1,-7 2,-9 2,-3 4,-5 6,-7 3,-1 6,-3 10,-4 4,0 8,-1 13,-1l9 0 0 -5c0,-2 0,-4 -1,-6 0,-2 -1,-3 -2,-5 -2,-1 -3,-2 -5,-2 -2,-1 -4,-1 -6,-1 -3,0 -6,0 -8,1 -2,0 -4,1 -6,2 -1,1 -3,1 -4,2 -1,1 -2,1 -2,1 -1,0 -1,0 -1,0 -1,0 -1,-1 -1,-1 0,0 -1,-1 -1,-1 0,-1 0,-2 0,-2 0,-2 0,-2 0,-3 1,-1 1,-1 2,-2 0,-1 1,-1 3,-2 1,-1 3,-2 5,-2 2,-1 4,-2 7,-2 2,-1 4,-1 7,-1 4,0 8,1 11,2 3,1 6,2 8,4 2,2 3,5 4,8 1,3 1,6 1,10l0 42z"/>
  <path class="fil0" d="M1148 464c0,0 0,1 0,1 -1,0 -1,0 -1,1 -1,0 -1,0 -2,0 -1,0 -2,0 -3,0 -1,0 -2,0 -3,0 0,0 -1,0 -1,0 -1,-1 -1,-1 -1,-1 0,0 0,-1 0,-1l0 -63c0,0 0,0 0,-1 0,0 0,0 1,0 0,0 1,-1 1,-1 1,0 2,0 3,0 1,0 2,0 3,0 1,0 1,1 2,1 0,0 0,0 1,0 0,1 0,1 0,1l0 63zm1 -84c0,3 0,5 -1,6 -1,1 -3,1 -6,1 -3,0 -4,0 -5,-1 -1,-1 -2,-3 -2,-6 0,-2 1,-4 2,-5 1,-1 2,-2 5,-2 3,0 5,1 6,2 1,1 1,3 1,5z"/>
  <path class="fil0" d="M1193 431c0,1 0,3 0,3 -1,1 -1,1 -2,1l-29 0c-1,0 -1,0 -2,-1 0,0 0,-2 0,-3 0,-2 0,-3 0,-4 1,-1 1,-1 2,-1l29 0c0,0 1,0 1,0 0,0 0,0 1,1 0,0 0,1 0,1 0,1 0,2 0,3z"/>
  <path class="fil0" d="M1266 386l0 0 -29 49 29 0 0 -49zm24 54c0,2 0,3 0,4 -1,1 -1,1 -2,1l-10 0 0 19c0,0 0,1 -1,1 0,0 0,0 -1,1 0,0 -1,0 -1,0 -1,0 -2,0 -3,0 -2,0 -2,0 -3,0 -1,0 -2,0 -2,0 0,-1 -1,-1 -1,-1 0,0 0,-1 0,-1l0 -19 -37 0c0,0 -1,0 -1,0 0,0 -1,-1 -1,-1 0,0 -1,-1 -1,-1 0,-1 0,-2 0,-3 0,-1 0,-2 0,-3 0,0 0,-1 0,-1 1,-1 1,-2 1,-2 0,-1 1,-1 1,-2l32 -55c0,0 0,0 1,-1 0,0 1,0 1,0 1,0 2,0 3,-1 1,0 2,0 4,0 1,0 3,0 4,1 1,0 2,0 2,0 1,0 2,0 2,1 0,0 1,0 1,1l0 57 10 0c0,0 1,1 2,1 0,1 0,2 0,4z"/>
  <path class="fil0" d="M1345 421c0,-4 0,-8 0,-12 0,-3 -1,-6 -2,-9 0,-3 -1,-5 -2,-7 -1,-2 -2,-4 -3,-5 -2,-1 -3,-2 -5,-3 -2,0 -4,-1 -6,-1 -4,0 -7,1 -10,3 -2,2 -4,4 -5,8 -2,3 -3,7 -3,11 -1,4 -1,9 -1,14 0,7 0,13 1,17 1,5 2,9 3,12 2,3 4,5 6,6 2,2 5,2 8,2 3,0 5,0 7,-1 2,-1 4,-2 5,-4 2,-1 3,-3 4,-5 1,-2 1,-5 2,-7 0,-3 1,-6 1,-9 0,-3 0,-6 0,-10zm13 0c0,6 -1,13 -2,18 -1,6 -3,11 -5,15 -3,4 -6,7 -10,10 -4,2 -9,3 -15,3 -6,0 -11,-1 -14,-3 -4,-2 -7,-5 -10,-9 -2,-4 -4,-9 -5,-14 -1,-6 -1,-13 -1,-20 0,-7 0,-13 1,-19 2,-6 3,-11 6,-15 2,-4 6,-7 10,-9 4,-2 9,-4 15,-4 5,0 10,1 14,3 4,2 7,5 9,9 2,4 4,9 5,15 1,6 2,12 2,20z"/>
  <path class="fil0" d="M1413 421c0,-4 0,-8 0,-12 0,-3 -1,-6 -1,-9 -1,-3 -2,-5 -3,-7 -1,-2 -2,-4 -3,-5 -2,-1 -3,-2 -5,-3 -2,0 -4,-1 -6,-1 -4,0 -7,1 -10,3 -2,2 -4,4 -5,8 -2,3 -3,7 -3,11 -1,4 -1,9 -1,14 0,7 0,13 1,17 1,5 2,9 3,12 2,3 4,5 6,6 2,2 5,2 8,2 3,0 5,0 7,-1 2,-1 4,-2 5,-4 2,-1 3,-3 4,-5 1,-2 1,-5 2,-7 0,-3 1,-6 1,-9 0,-3 0,-6 0,-10zm13 0c0,6 -1,13 -2,18 -1,6 -3,11 -5,15 -3,4 -6,7 -10,10 -4,2 -9,3 -15,3 -6,0 -11,-1 -14,-3 -4,-2 -7,-5 -10,-9 -2,-4 -4,-9 -5,-14 -1,-6 -1,-13 -1,-20 0,-7 0,-13 1,-19 2,-6 3,-11 6,-15 2,-4 6,-7 10,-9 4,-2 9,-4 15,-4 5,0 10,1 14,3 4,2 7,5 9,9 2,4 4,9 5,15 1,6 2,12 2,20z"/>
  <path class="fil0" d="M1510 421c0,-4 0,-8 -1,-12 0,-3 0,-6 -1,-9 -1,-3 -2,-5 -3,-7 0,-2 -2,-4 -3,-5 -1,-1 -3,-2 -5,-3 -2,0 -4,-1 -6,-1 -4,0 -7,1 -9,3 -3,2 -5,4 -6,8 -1,3 -2,7 -3,11 0,4 -1,9 -1,14 0,7 1,13 1,17 1,5 2,9 4,12 1,3 3,5 5,6 3,2 6,2 9,2 2,0 5,0 7,-1 2,-1 3,-2 5,-4 1,-1 2,-3 3,-5 1,-2 2,-5 2,-7 1,-3 1,-6 1,-9 1,-3 1,-6 1,-10zm12 0c0,6 -1,13 -2,18 -1,6 -3,11 -5,15 -3,4 -6,7 -10,10 -4,2 -9,3 -15,3 -5,0 -10,-1 -14,-3 -4,-2 -7,-5 -9,-9 -3,-4 -4,-9 -5,-14 -1,-6 -2,-13 -2,-20 0,-7 1,-13 2,-19 1,-6 3,-11 5,-15 3,-4 6,-7 10,-9 4,-2 9,-4 15,-4 6,0 10,1 14,3 4,2 7,5 9,9 3,4 4,9 5,15 1,6 2,12 2,20z"/>
  <path class="fil0" d="M1587 461c0,1 0,2 0,2 0,1 0,1 -1,2 0,0 0,0 0,0 -1,1 -1,1 -1,1l-47 0c0,0 -1,0 -1,-1 0,0 0,0 -1,0 0,-1 0,-1 0,-2 0,0 0,-1 0,-2 0,-1 0,-2 0,-2 0,-1 0,-1 0,-2 1,0 1,0 1,-1 0,0 1,0 1,0l19 0 0 -68 -18 10c0,1 -1,1 -2,1 0,0 -1,0 -1,0 0,-1 0,-1 -1,-2 0,-1 0,-2 0,-3 0,0 0,-1 0,-2 0,0 1,-1 1,-1 0,0 0,-1 0,-1 1,0 1,-1 1,-1l21 -13c0,0 0,0 0,0 1,0 1,-1 2,-1 0,0 0,0 1,0 1,0 1,0 2,0 1,0 2,0 3,0 1,0 1,0 2,1 0,0 0,0 0,0 1,1 1,1 1,1l0 79 16 0c0,0 0,0 1,0 0,1 0,1 1,1 0,1 0,1 0,2 0,0 0,1 0,2z"/>
  <path class="fil0" d="M1654 440c0,4 0,8 -2,11 -1,3 -3,6 -6,9 -3,2 -6,4 -10,5 -4,1 -8,2 -13,2 -3,0 -6,0 -8,-1 -3,0 -5,-1 -7,-1 -2,-1 -4,-2 -5,-2 -2,-1 -3,-2 -3,-2 0,0 -1,-1 -1,-1 0,0 0,-1 0,-1 0,-1 0,-1 0,-2 -1,-1 -1,-1 -1,-2 0,-2 1,-3 1,-4 0,-1 1,-1 1,-1 1,0 2,1 3,1 1,1 3,2 5,3 2,1 4,1 6,2 3,1 6,1 9,1 3,0 6,0 8,-1 3,-1 5,-2 6,-3 2,-2 3,-3 4,-5 1,-2 1,-5 1,-7 0,-2 0,-5 -1,-7 -1,-2 -3,-4 -5,-5 -2,-2 -4,-3 -7,-3 -3,-1 -6,-2 -10,-2l-9 0c0,0 0,0 -1,0 0,0 0,0 -1,-1 0,0 0,-1 0,-1 0,-1 -1,-2 -1,-3 0,0 1,-1 1,-2 0,0 0,-1 0,-1 0,0 1,-1 1,-1 0,0 1,0 1,0l8 0c3,0 6,-1 8,-1 3,-1 5,-2 6,-4 2,-1 3,-3 4,-5 1,-2 1,-4 1,-7 0,-2 0,-4 0,-5 -1,-2 -2,-3 -3,-5 -1,-1 -3,-2 -5,-3 -2,0 -4,-1 -6,-1 -3,0 -5,1 -7,2 -3,0 -5,1 -6,2 -2,1 -4,2 -5,3 -1,1 -2,1 -2,1 -1,0 -1,0 -1,0 0,0 -1,-1 -1,-1 0,0 0,-1 0,-1 0,-1 0,-2 0,-3 0,-1 0,-1 0,-2 0,0 0,-1 0,-1 0,0 1,-1 1,-1 0,-1 0,-1 1,-1 0,-1 1,-1 2,-2 2,-1 3,-2 5,-3 2,-1 4,-1 7,-2 3,0 5,-1 8,-1 4,0 8,1 11,2 3,1 6,3 8,5 2,1 4,4 5,6 1,3 1,6 1,10 0,2 0,5 -1,7 -1,3 -2,5 -3,7 -2,2 -3,3 -5,5 -2,1 -5,2 -8,2l0 1c4,0 6,1 9,2 2,1 5,3 6,5 2,1 4,4 5,6 1,3 1,5 1,8z"/>
  <path class="fil0" d="M1685 456c0,1 0,3 0,4 0,1 -1,2 -1,3 0,1 -1,2 -1,3 -1,1 -1,2 -2,4l-10 14c0,0 0,1 0,1 -1,0 -1,0 -2,0 0,1 -1,1 -1,1 -1,0 -1,0 -2,0 -1,0 -2,0 -2,0 -1,0 -1,0 -1,-1 -1,0 -1,0 -1,0 0,0 0,-1 0,-1l10 -19 0 -9c0,-1 0,-2 0,-3 0,-1 1,-2 1,-2 1,0 1,-1 2,-1 1,0 2,0 3,0 1,0 2,0 3,0 1,0 2,1 2,1 1,0 1,1 1,2 1,1 1,2 1,3z"/>
  <path class="fil0" d="M1743 464c0,0 0,1 0,1 0,0 -1,0 -1,1 -1,0 -1,0 -2,0 -1,0 -2,0 -3,0 -1,0 -2,0 -3,0 0,0 -1,0 -2,0 0,-1 0,-1 0,-1 -1,0 -1,-1 -1,-1l0 -86c0,-1 0,-1 1,-1 0,-1 0,-1 1,-1 0,0 1,0 1,-1 1,0 2,0 3,0 1,0 2,0 3,0 1,1 1,1 2,1 0,0 1,0 1,1 0,0 0,0 0,1l0 86z"/>
  <path class="fil0" d="M1831 461c0,1 0,2 -1,2 0,1 -1,1 -1,2 0,0 -1,0 -2,1 0,0 -1,0 -2,0l-3 0c-2,0 -3,0 -4,0 -1,-1 -1,-1 -2,-2 -1,0 -2,-1 -3,-3 -1,-1 -2,-2 -2,-4l-28 -51c-1,-3 -3,-6 -4,-9 -1,-2 -3,-5 -4,-8l0 0c0,3 0,7 0,10 0,4 0,7 0,11l0 54c0,0 0,1 0,1 0,0 -1,0 -1,1 -1,0 -1,0 -2,0 -1,0 -2,0 -3,0 -1,0 -2,0 -3,0 0,0 -1,0 -1,0 -1,-1 -1,-1 -1,-1 -1,0 -1,-1 -1,-1l0 -83c0,-2 1,-3 2,-4 1,-1 2,-1 3,-1l6 0c1,0 3,0 4,0 0,0 1,1 2,1 1,1 1,1 2,2 1,1 2,3 2,4l21 40c2,2 3,4 4,7 1,2 2,4 3,6 2,3 3,5 4,7 1,2 2,4 3,6l0 0c0,-3 0,-7 0,-11 0,-4 0,-8 0,-11l0 -49c0,-1 0,-1 0,-1 0,0 1,-1 1,-1 1,0 1,0 2,0 1,0 2,0 3,0 1,0 2,0 3,0 0,0 1,0 1,0 1,0 1,1 1,1 1,0 1,0 1,1l0 83z"/>
  <path class="fil0" d="M1907 420c0,-5 -1,-10 -2,-14 -1,-4 -3,-8 -5,-11 -3,-3 -6,-5 -10,-7 -4,-1 -9,-2 -15,-2l-12 0 0 70 12 0c6,0 10,-1 14,-2 4,-2 7,-4 10,-7 3,-3 5,-7 6,-11 1,-5 2,-10 2,-16zm12 -1c0,8 -1,15 -3,21 -1,6 -4,10 -8,14 -4,4 -9,7 -14,9 -6,2 -12,3 -20,3l-19 0c-1,0 -2,-1 -3,-1 -1,-1 -1,-2 -1,-4l0 -80c0,-2 0,-3 1,-4 1,-1 2,-1 3,-1l20 0c8,0 15,1 20,3 5,2 10,5 13,8 4,4 7,9 9,14 1,6 2,12 2,18z"/>
  <path class="fil0" d="M1946 464c0,0 0,1 0,1 0,0 -1,0 -1,1 -1,0 -1,0 -2,0 -1,0 -2,0 -3,0 -1,0 -2,0 -3,0 0,0 -1,0 -2,0 0,-1 0,-1 -1,-1 0,0 0,-1 0,-1l0 -86c0,-1 0,-1 0,-1 1,-1 1,-1 1,-1 1,0 2,0 2,-1 1,0 2,0 3,0 1,0 2,0 3,0 1,1 1,1 2,1 0,0 1,0 1,1 0,0 0,0 0,1l0 86z"/>
  <path class="fil0" d="M1995 388l-1 0 -15 45 31 0 -15 -45zm38 73c0,2 1,2 1,3 0,1 -1,1 -1,1 0,1 -1,1 -2,1 -1,0 -2,0 -3,0 -2,0 -3,0 -4,0 0,0 -1,0 -2,0 0,0 0,-1 0,-1 -1,0 -1,-1 -1,-1l-8 -22 -37 0 -7 22c0,0 0,0 -1,1 0,0 0,0 -1,1 0,0 -1,0 -2,0 0,0 -1,0 -3,0 -1,0 -2,0 -3,0 -1,0 -1,0 -2,-1 0,0 0,0 0,-1 0,-1 0,-2 0,-3l30 -83c0,-1 1,-1 1,-1 0,-1 1,-1 1,-1 1,0 2,-1 3,-1 0,0 2,0 3,0 1,0 3,0 4,0 1,0 1,1 2,1 1,0 1,0 1,1 1,0 1,0 1,1l30 83z"/>
  <path class="fil0" d="M2243 463c0,1 0,1 -1,2 0,0 0,0 -1,1 -1,0 -2,0 -2,0 -1,0 -3,0 -4,0 -1,0 -3,0 -4,0 -1,0 -1,0 -2,0 -1,-1 -1,-1 -1,-1 -1,-1 -1,-1 -1,-2l-19 -68 0 0 -17 68c0,1 -1,1 -1,2 0,0 -1,0 -1,1 -1,0 -2,0 -3,0 -1,0 -2,0 -3,0 -2,0 -3,0 -4,0 -1,0 -2,0 -3,0 0,-1 -1,-1 -1,-1 0,-1 -1,-1 -1,-2l-23 -83c-1,-1 -1,-2 -1,-3 0,0 0,-1 1,-1 0,0 1,0 2,-1 1,0 2,0 3,0 2,0 3,0 4,0 0,0 1,1 1,1 1,0 1,0 1,1 1,0 1,0 1,1l20 75 0 0 19 -75c0,-1 0,-1 0,-1 1,-1 1,-1 1,-1 1,0 2,0 2,-1 1,0 2,0 4,0 1,0 2,0 3,0 1,1 1,1 2,1 0,0 0,0 1,1 0,0 0,0 0,1l21 75 0 0 19 -75c1,-1 1,-1 1,-1 0,-1 0,-1 1,-1 0,0 1,0 2,-1 0,0 1,0 3,0 1,0 2,0 3,0 1,1 1,1 2,1 0,0 0,1 0,2 0,0 0,1 0,2l-24 83z"/>
  <path class="fil0" d="M2320 427c0,-6 -1,-11 -4,-15 -3,-3 -7,-5 -12,-5 -3,0 -6,1 -8,2 -2,1 -4,2 -5,4 -2,2 -3,4 -3,6 -1,3 -2,5 -2,8l34 0zm12 3c0,2 -1,3 -2,4 -1,1 -2,1 -3,1l-41 0c0,3 1,7 1,9 1,3 2,6 4,8 1,2 3,3 6,4 3,1 6,2 10,2 3,0 5,0 7,-1 3,-1 5,-1 6,-2 2,0 4,-1 5,-1 1,-1 1,-1 2,-1 0,0 1,0 1,0 0,0 0,1 0,1 1,0 1,1 1,1 0,1 0,2 0,2 0,1 0,2 0,2 0,0 0,1 0,1 0,1 -1,1 -1,1 0,0 0,1 0,1 -1,0 -1,1 -3,1 -1,1 -2,1 -4,2 -2,0 -5,1 -7,1 -3,1 -6,1 -9,1 -5,0 -9,-1 -13,-2 -4,-2 -7,-4 -10,-7 -2,-2 -4,-6 -6,-10 -1,-4 -2,-9 -2,-15 0,-5 1,-10 3,-15 1,-4 3,-7 5,-10 3,-3 6,-6 10,-7 4,-2 8,-3 12,-3 5,0 9,1 13,3 3,1 6,3 8,6 2,3 4,6 5,9 1,4 2,8 2,12l0 2z"/>
  <path class="fil0" d="M2391 433c0,-3 -1,-6 -1,-9 -1,-3 -1,-6 -3,-8 -1,-2 -2,-4 -4,-6 -2,-1 -5,-2 -8,-2 -1,0 -3,0 -4,1 -2,0 -3,1 -5,2 -1,1 -3,2 -4,4 -2,1 -4,3 -5,5l0 25c3,4 6,7 9,9 3,2 6,3 9,3 3,0 5,-1 7,-2 2,-1 4,-3 5,-5 1,-3 2,-5 3,-8 0,-3 1,-6 1,-9zm11 -1c0,5 0,10 -1,14 -2,5 -3,9 -6,12 -2,3 -5,5 -8,7 -3,1 -7,2 -11,2 -2,0 -4,0 -6,-1 -1,0 -3,-1 -5,-1 -1,-1 -3,-2 -5,-4 -1,-1 -3,-3 -5,-5l0 8c0,0 0,1 0,1 0,0 0,0 -1,1 0,0 -1,0 -1,0 -1,0 -2,0 -3,0 -1,0 -1,0 -2,0 -1,0 -1,0 -2,0 0,-1 0,-1 0,-1 -1,0 -1,-1 -1,-1l0 -93c0,0 0,-1 1,-1 0,0 0,0 0,-1 1,0 1,0 2,0 1,0 2,0 3,0 1,0 2,0 3,0 1,0 1,0 2,0 0,1 0,1 0,1 1,0 1,1 1,1l0 38c2,-2 3,-4 5,-5 2,-2 3,-3 5,-3 2,-1 3,-2 5,-2 2,-1 3,-1 5,-1 5,0 9,1 12,3 3,2 6,4 8,7 2,3 3,7 4,11 1,4 1,8 1,13z"/>
  <path class="fil0" d="M2455 447c0,3 -1,6 -2,9 -1,2 -3,4 -5,6 -2,2 -5,3 -8,4 -3,1 -6,1 -9,1 -3,0 -5,0 -7,0 -2,-1 -4,-1 -5,-2 -2,0 -3,-1 -4,-1 -1,-1 -2,-2 -3,-2 0,0 0,-1 -1,-2 0,-1 0,-2 0,-3 0,-1 0,-2 0,-3 0,0 0,-1 0,-1 1,0 1,-1 1,-1 0,0 1,0 1,0 0,0 1,0 2,1 1,0 2,1 4,2 1,1 3,1 5,2 2,1 4,1 7,1 2,0 3,0 5,-1 2,0 3,-1 4,-2 1,0 2,-1 3,-3 0,-1 1,-2 1,-4 0,-2 -1,-3 -2,-5 -1,-1 -2,-2 -3,-3 -2,-1 -3,-2 -5,-2 -2,-1 -4,-2 -6,-2 -2,-1 -4,-2 -6,-3 -1,-1 -3,-2 -5,-4 -1,-1 -2,-3 -3,-5 -1,-2 -2,-4 -2,-7 0,-3 1,-5 2,-7 1,-2 2,-4 4,-6 2,-2 4,-3 7,-4 3,-1 6,-2 10,-2 2,0 3,0 5,1 2,0 3,0 5,1 1,0 2,1 3,1 1,1 2,1 2,1 1,1 1,1 1,1 0,1 0,1 0,1 0,1 1,1 1,2 0,0 0,1 0,1 0,1 0,2 0,2 0,1 -1,2 -1,2 0,0 0,1 0,1 -1,0 -1,0 -1,0 -1,0 -1,0 -2,-1 -1,0 -2,-1 -3,-1 -1,-1 -3,-2 -4,-2 -2,-1 -4,-1 -6,-1 -2,0 -4,0 -5,1 -2,0 -3,1 -4,2 -1,1 -1,1 -2,3 0,1 -1,2 -1,3 0,2 1,4 2,5 1,1 2,2 3,3 2,1 3,2 5,2 2,1 4,2 6,3 2,1 4,1 6,2 2,1 4,3 5,4 1,1 3,3 4,5 0,2 1,4 1,7z"/>
  <path class="fil0" d="M2479 464c0,0 0,1 0,1 0,0 -1,0 -1,1 -1,0 -1,0 -2,0 -1,0 -2,0 -3,0 -1,0 -2,0 -3,0 0,0 -1,0 -1,0 -1,-1 -1,-1 -1,-1 0,0 0,-1 0,-1l0 -63c0,0 0,0 0,-1 0,0 0,0 1,0 0,0 1,-1 1,-1 1,0 2,0 3,0 1,0 2,0 3,0 1,0 1,1 2,1 0,0 1,0 1,0 0,1 0,1 0,1l0 63zm1 -84c0,3 0,5 -1,6 -1,1 -3,1 -6,1 -2,0 -4,0 -5,-1 -1,-1 -2,-3 -2,-6 0,-2 1,-4 2,-5 1,-1 3,-2 5,-2 3,0 5,1 6,2 1,1 1,3 1,5z"/>
  <path class="fil0" d="M2529 459c0,2 0,3 -1,4 0,0 0,1 0,1 -1,1 -1,1 -2,1 -1,1 -2,1 -3,1 0,0 -1,1 -3,1 -1,0 -2,0 -3,0 -3,0 -6,-1 -8,-1 -2,-1 -4,-3 -6,-4 -1,-2 -2,-4 -3,-7 0,-3 -1,-6 -1,-9l0 -37 -9 0c0,0 -1,0 -1,-1 -1,-1 -1,-2 -1,-4 0,0 0,-1 0,-2 1,0 1,-1 1,-1 0,-1 0,-1 1,-1 0,0 0,0 1,0l8 0 0 -15c0,-1 0,-1 0,-1 1,0 1,-1 1,-1 1,0 1,0 2,0 1,0 2,-1 3,-1 1,0 2,1 3,1 0,0 1,0 1,0 1,0 1,1 1,1 0,0 1,0 1,1l0 15 15 0c1,0 1,0 1,0 1,0 1,0 1,1 0,0 0,1 1,1 0,1 0,2 0,2 0,2 0,3 -1,4 0,1 -1,1 -2,1l-15 0 0 35c0,4 0,8 1,10 2,2 4,3 7,3 1,0 2,0 3,0 1,0 2,-1 2,-1 1,0 1,0 2,-1 0,0 1,0 1,0 0,0 1,0 1,0 0,0 0,1 0,1 0,0 0,1 1,1 0,1 0,2 0,2z"/>
  <path class="fil0" d="M2582 427c0,-6 -1,-11 -4,-15 -3,-3 -7,-5 -13,-5 -3,0 -5,1 -7,2 -2,1 -4,2 -5,4 -2,2 -3,4 -4,6 -1,3 -1,5 -1,8l34 0zm11 3c0,2 0,3 -1,4 -1,1 -2,1 -3,1l-41 0c0,3 0,7 1,9 1,3 2,6 3,8 2,2 4,3 7,4 2,1 5,2 9,2 3,0 6,0 8,-1 2,-1 4,-1 6,-2 2,0 3,-1 4,-1 1,-1 2,-1 3,-1 0,0 0,0 1,0 0,0 0,1 0,1 0,0 0,1 0,1 1,1 1,2 1,2 0,1 0,2 -1,2 0,0 0,1 0,1 0,1 0,1 0,1 0,0 0,1 -1,1 0,0 -1,1 -2,1 -1,1 -3,1 -5,2 -2,0 -4,1 -7,1 -2,1 -5,1 -8,1 -5,0 -9,-1 -13,-2 -4,-2 -7,-4 -10,-7 -3,-2 -5,-6 -6,-10 -1,-4 -2,-9 -2,-15 0,-5 1,-10 2,-15 2,-4 4,-7 6,-10 3,-3 6,-6 10,-7 3,-2 7,-3 12,-3 5,0 9,1 12,3 4,1 7,3 9,6 2,3 4,6 5,9 1,4 1,8 1,12l0 2z"/>
  <path class="fil0" d="M2624 458c0,2 0,3 -1,4 0,1 0,2 -1,3 0,0 -1,1 -2,1 -1,0 -2,0 -3,0 -2,0 -3,0 -4,0 -1,0 -2,-1 -2,-1 -1,-1 -1,-2 -1,-3 -1,-1 -1,-2 -1,-4 0,-1 0,-2 1,-3 0,-2 0,-2 1,-3 0,-1 1,-1 2,-1 1,-1 2,-1 4,-1 1,0 2,0 3,1 1,0 2,0 2,1 1,1 1,1 1,3 1,1 1,2 1,3zm0 -48c0,2 0,3 -1,4 0,1 0,2 -1,2 0,1 -1,1 -2,2 -1,0 -2,0 -3,0 -2,0 -3,0 -4,0 -1,-1 -2,-1 -2,-2 -1,0 -1,-1 -1,-2 -1,-1 -1,-2 -1,-4 0,-1 0,-3 1,-4 0,-1 0,-2 1,-2 0,-1 1,-1 2,-2 1,0 2,0 4,0 1,0 2,0 3,0 1,1 2,1 2,2 1,0 1,1 1,2 1,1 1,3 1,4z"/>
  <path class="fil0" d="M2756 401c0,1 0,1 0,1 0,1 0,1 0,2l-19 60c0,0 0,1 0,1 -1,0 -1,0 -1,1 -1,0 -2,0 -3,0 -1,0 -2,0 -3,0 -2,0 -3,0 -4,0 -1,0 -1,0 -2,0 -1,-1 -1,-1 -1,-1 -1,-1 -1,-1 -1,-1l-13 -46 0 0 0 0 -12 46c0,0 -1,1 -1,1 0,0 -1,0 -1,1 -1,0 -2,0 -3,0 0,0 -2,0 -3,0 -1,0 -3,0 -3,0 -1,0 -2,0 -3,0 0,-1 -1,-1 -1,-1 0,-1 0,-1 -1,-1l-18 -60c0,-1 0,-1 0,-2 0,0 0,0 0,-1 0,0 0,-1 0,-1 0,0 0,0 1,0 0,-1 1,-1 2,-1 0,0 1,0 2,0 2,0 3,0 3,0 1,0 2,1 2,1 1,0 1,0 1,0 0,1 0,1 1,1l15 52 0 1 0 -1 14 -52c0,0 0,0 0,-1 0,0 1,0 1,0 0,0 1,-1 2,-1 0,0 1,0 2,0 1,0 2,0 3,0 1,0 1,1 2,1 0,0 1,0 1,0 0,1 0,1 0,1l15 52 0 1 0 -1 15 -52c0,0 0,0 0,-1 1,0 1,0 1,0 1,0 1,-1 2,-1 1,0 2,0 3,0 1,0 2,0 3,0 0,0 1,0 1,1 1,0 1,0 1,0 0,0 0,1 0,1z"/>
  <path class="fil0" d="M2854 401c0,1 0,1 0,1 -1,1 -1,1 -1,2l-18 60c0,0 -1,1 -1,1 0,0 -1,0 -1,1 -1,0 -1,0 -2,0 -1,0 -2,0 -4,0 -1,0 -2,0 -3,0 -1,0 -2,0 -3,0 0,-1 -1,-1 -1,-1 0,-1 0,-1 0,-1l-14 -46 0 0 0 0 -12 46c0,0 0,1 0,1 -1,0 -1,0 -2,1 0,0 -1,0 -2,0 -1,0 -2,0 -4,0 -1,0 -2,0 -3,0 -1,0 -2,0 -2,0 -1,-1 -1,-1 -2,-1 0,-1 0,-1 0,-1l-18 -60c-1,-1 -1,-1 -1,-2 0,0 0,0 0,-1 0,0 0,-1 0,-1 1,0 1,0 1,0 1,-1 1,-1 2,-1 1,0 2,0 3,0 1,0 2,0 3,0 1,0 1,1 2,1 0,0 0,0 0,0 1,1 1,1 1,1l15 52 0 1 0 -1 14 -52c0,0 0,0 0,-1 1,0 1,0 1,0 1,0 1,-1 2,-1 1,0 2,0 3,0 1,0 2,0 2,0 1,0 2,1 2,1 1,0 1,0 1,0 0,1 0,1 0,1l15 52 0 1 1 -1 14 -52c0,0 1,0 1,-1 0,0 0,0 1,0 0,0 1,-1 1,-1 1,0 2,0 3,0 1,0 2,0 3,0 1,0 1,0 2,1 0,0 0,0 0,0 1,0 1,1 1,1z"/>
  <path class="fil0" d="M2951 401c0,1 0,1 0,1 0,1 0,1 -1,2l-18 60c0,0 0,1 0,1 -1,0 -1,0 -2,1 0,0 -1,0 -2,0 -1,0 -2,0 -3,0 -2,0 -3,0 -4,0 -1,0 -2,0 -2,0 -1,-1 -1,-1 -1,-1 -1,-1 -1,-1 -1,-1l-13 -46 0 0 0 0 -13 46c0,0 0,1 0,1 0,0 -1,0 -2,1 0,0 -1,0 -2,0 -1,0 -2,0 -3,0 -2,0 -3,0 -4,0 -1,0 -1,0 -2,0 -1,-1 -1,-1 -1,-1 -1,-1 -1,-1 -1,-1l-18 -60c0,-1 0,-1 0,-2 -1,0 -1,0 -1,-1 0,0 0,-1 1,-1 0,0 0,0 1,0 0,-1 1,-1 1,-1 1,0 2,0 3,0 1,0 2,0 3,0 1,0 2,1 2,1 0,0 1,0 1,0 0,1 0,1 0,1l15 52 0 1 1 -1 13 -52c0,0 0,0 1,-1 0,0 0,0 1,0 0,0 1,-1 1,-1 1,0 2,0 3,0 1,0 2,0 3,0 1,0 1,1 2,1 0,0 0,0 0,0 1,1 1,1 1,1l15 52 0 1 0 -1 15 -52c0,0 0,0 0,-1 0,0 1,0 1,0 0,0 1,-1 2,-1 1,0 2,0 3,0 1,0 2,0 2,0 1,0 2,0 2,1 0,0 1,0 1,0 0,0 0,1 0,1z"/>
  <path class="fil0" d="M2976 458c0,3 0,6 -1,7 -1,1 -3,1 -6,1 -3,0 -5,0 -6,-1 -1,-1 -1,-3 -1,-7 0,-3 0,-5 1,-6 1,-1 3,-2 6,-2 3,0 5,1 6,2 1,1 1,3 1,6z"/>
  <path class="fil0" d="M3038 454c0,1 0,2 0,3 0,0 0,1 0,1 0,0 0,1 0,1 -1,0 -1,1 -1,1 -1,1 -2,2 -3,3 -2,0 -3,1 -5,2 -2,0 -4,1 -6,1 -2,1 -4,1 -6,1 -4,0 -8,-1 -12,-2 -3,-2 -6,-4 -8,-7 -3,-3 -4,-6 -6,-10 -1,-4 -2,-9 -2,-15 0,-6 1,-11 3,-15 1,-5 3,-8 6,-11 2,-3 5,-5 9,-7 3,-1 7,-2 11,-2 2,0 4,1 6,1 2,0 4,1 5,1 2,1 3,2 4,2 2,1 3,2 3,2 1,1 1,1 1,2 0,0 1,1 1,1 0,0 0,1 0,1 0,1 0,2 0,3 0,1 0,3 -1,3 0,1 0,1 -1,1 -1,0 -2,0 -2,-1 -1,-1 -2,-1 -4,-2 -1,-1 -3,-2 -5,-3 -2,-1 -4,-1 -7,-1 -5,0 -9,2 -12,6 -3,5 -5,11 -5,19 0,4 1,7 1,10 1,3 2,6 4,8 1,2 3,4 5,5 2,1 5,1 8,1 2,0 4,0 6,-1 2,-1 4,-2 6,-3 1,-1 2,-2 3,-3 1,0 2,-1 2,-1 1,0 1,0 1,0 1,1 1,1 1,1 0,1 0,1 0,2 0,1 0,2 0,2z"/>
  <path class="fil0" d="M3061 464c0,0 0,1 0,1 0,0 0,0 -1,1 0,0 -1,0 -2,0 0,0 -1,0 -2,0 -2,0 -2,0 -3,0 -1,0 -2,0 -2,0 0,-1 -1,-1 -1,-1 0,0 0,-1 0,-1l0 -63c0,0 0,0 0,-1 0,0 1,0 1,0 0,0 1,-1 2,-1 1,0 1,0 3,0 1,0 2,0 2,0 1,0 2,1 2,1 1,0 1,0 1,0 0,1 0,1 0,1l0 63zm2 -84c0,3 -1,5 -2,6 -1,1 -3,1 -6,1 -2,0 -4,0 -5,-1 -1,-1 -1,-3 -1,-6 0,-2 0,-4 1,-5 1,-1 3,-2 6,-2 2,0 4,1 5,2 1,1 2,3 2,5z"/>
  <path class="fil0" d="M3124 433c0,-3 0,-6 -1,-9 0,-3 -1,-6 -2,-8 -1,-3 -3,-4 -5,-6 -2,-1 -4,-2 -7,-2 -2,0 -3,0 -5,1 -1,0 -3,1 -4,2 -2,1 -3,2 -5,4 -1,1 -3,3 -5,5l0 25c3,4 6,7 9,9 3,2 6,3 9,3 3,0 5,-1 7,-2 2,-1 4,-3 5,-5 2,-3 3,-5 3,-8 1,-3 1,-6 1,-9zm12 -1c0,5 -1,10 -2,14 -1,5 -3,9 -5,12 -2,3 -5,5 -9,7 -3,1 -7,2 -11,2 -2,0 -4,0 -5,-1 -2,0 -3,0 -5,-1 -1,-1 -3,-2 -4,-3 -2,-1 -3,-3 -5,-4l0 31c0,0 0,1 0,1 0,0 -1,0 -1,0 0,1 -1,1 -2,1 0,0 -1,0 -3,0 -1,0 -2,0 -2,0 -1,0 -2,0 -2,-1 -1,0 -1,0 -1,0 0,0 0,-1 0,-1l0 -88c0,0 0,0 0,-1 0,0 0,0 1,0 0,0 1,-1 1,-1 1,0 2,0 3,0 1,0 2,0 2,0 1,0 1,1 2,1 0,0 0,0 1,0 0,1 0,1 0,1l0 9c2,-2 3,-4 5,-5 2,-2 4,-3 5,-4 2,-1 4,-2 6,-2 2,-1 4,-1 6,-1 4,0 8,1 11,3 4,2 6,4 8,7 2,3 4,7 4,11 1,4 2,8 2,13z"/>
  <path class="fil0" d="M3161 464c0,0 0,1 0,1 -1,0 -1,0 -1,1 -1,0 -1,0 -2,0 -1,0 -2,0 -3,0 -1,0 -2,0 -3,0 0,0 -1,0 -1,0 -1,-1 -1,-1 -1,-1 -1,0 -1,-1 -1,-1l0 -93c0,0 0,-1 1,-1 0,0 0,0 1,-1 0,0 1,0 1,0 1,0 2,0 3,0 1,0 2,0 3,0 1,0 1,0 2,0 0,1 0,1 1,1 0,0 0,1 0,1l0 93z"/>
  <path class="fil0" d="M3214 435l-10 0c-3,0 -6,1 -8,1 -2,1 -4,2 -6,3 -1,1 -3,2 -3,3 -1,2 -1,4 -1,5 0,4 1,6 3,8 2,2 5,3 8,3 3,0 6,-1 9,-2 2,-2 5,-4 8,-7l0 -14zm11 29c0,1 0,1 -1,1 0,1 0,1 -1,1 -1,0 -2,0 -3,0 -1,0 -2,0 -3,0 0,0 -1,0 -1,-1 -1,0 -1,0 -1,-1l0 -6c-2,3 -6,5 -9,7 -3,1 -7,2 -10,2 -4,0 -7,0 -9,-1 -3,-1 -5,-2 -7,-4 -2,-2 -3,-4 -4,-6 -1,-2 -2,-5 -2,-8 0,-4 1,-7 2,-9 2,-3 4,-5 6,-7 3,-1 6,-3 10,-4 4,0 8,-1 13,-1l9 0 0 -5c0,-2 -1,-4 -1,-6 -1,-2 -1,-3 -2,-5 -2,-1 -3,-2 -5,-2 -2,-1 -4,-1 -6,-1 -3,0 -6,0 -8,1 -2,0 -4,1 -6,2 -2,1 -3,1 -4,2 -1,1 -2,1 -3,1 0,0 0,0 -1,0 0,0 0,-1 0,-1 -1,0 -1,-1 -1,-1 0,-1 0,-2 0,-2 0,-2 0,-2 0,-3 0,-1 1,-1 2,-2 0,-1 1,-1 3,-2 1,-1 3,-2 5,-2 2,-1 4,-2 6,-2 3,-1 5,-1 8,-1 4,0 8,1 11,2 3,1 6,2 7,4 2,2 4,5 5,8 1,3 1,6 1,10l0 42z"/>
  <path class="fil0" d="M3257 458c0,3 0,6 -2,7 -1,1 -3,1 -5,1 -3,0 -5,0 -6,-1 -1,-1 -2,-3 -2,-7 0,-3 1,-5 2,-6 1,-1 3,-2 6,-2 2,0 4,1 5,2 2,1 2,3 2,6z"/>
  <path class="fil0" d="M3319 454c0,1 0,2 0,3 0,0 0,1 0,1 0,0 0,1 -1,1 0,0 0,1 -1,1 0,1 -1,2 -3,3 -1,0 -3,1 -4,2 -2,0 -4,1 -6,1 -2,1 -4,1 -6,1 -5,0 -9,-1 -12,-2 -4,-2 -6,-4 -9,-7 -2,-3 -4,-6 -5,-10 -1,-4 -2,-9 -2,-15 0,-6 1,-11 2,-15 2,-5 4,-8 6,-11 3,-3 6,-5 10,-7 3,-1 7,-2 11,-2 2,0 4,1 6,1 2,0 3,1 5,1 2,1 3,2 4,2 1,1 2,2 3,2 0,1 1,1 1,2 0,0 0,1 0,1 1,0 1,1 1,1 0,1 0,2 0,3 0,1 0,3 -1,3 0,1 -1,1 -1,1 -1,0 -2,0 -3,-1 -1,-1 -2,-1 -3,-2 -2,-1 -3,-2 -5,-3 -2,-1 -4,-1 -7,-1 -6,0 -10,2 -13,6 -3,5 -4,11 -4,19 0,4 0,7 1,10 1,3 2,6 3,8 2,2 4,4 6,5 2,1 4,1 7,1 3,0 5,0 7,-1 2,-1 4,-2 5,-3 2,-1 3,-2 4,-3 1,0 2,-1 2,-1 1,0 1,0 1,0 0,1 0,1 1,1 0,1 0,1 0,2 0,1 0,2 0,2z"/>
  <path class="fil0" d="M3377 433c0,-4 -1,-7 -1,-10 -1,-3 -2,-5 -3,-8 -2,-2 -4,-4 -6,-5 -3,-1 -6,-2 -10,-2 -3,0 -6,0 -8,2 -3,1 -5,3 -6,5 -2,2 -3,5 -4,8 -1,3 -1,6 -1,9 0,4 0,7 1,10 1,3 2,6 3,8 2,2 4,4 6,5 2,2 6,2 9,2 4,0 6,0 9,-1 2,-2 4,-3 6,-6 2,-2 3,-4 3,-7 1,-3 2,-7 2,-10zm11 -1c0,5 0,10 -2,14 -1,4 -3,8 -6,11 -2,3 -6,6 -10,7 -4,2 -8,3 -13,3 -5,0 -10,-1 -14,-2 -4,-2 -7,-4 -9,-7 -3,-3 -5,-6 -6,-11 -1,-4 -2,-8 -2,-14 0,-5 1,-10 2,-14 2,-4 4,-8 6,-11 3,-3 6,-5 10,-7 4,-2 9,-3 14,-3 5,0 9,1 13,3 4,1 7,3 10,6 2,3 4,7 5,11 2,4 2,9 2,14z"/>
  <path class="fil0" d="M3494 464c0,0 -1,1 -1,1 0,0 0,0 -1,1 0,0 -1,0 -1,0 -1,0 -2,0 -3,0 -1,0 -2,0 -3,0 -1,0 -1,0 -2,0 0,-1 0,-1 -1,-1 0,0 0,-1 0,-1l0 -38c0,-3 0,-5 -1,-7 0,-2 -1,-4 -2,-6 -1,-1 -2,-3 -4,-4 -1,0 -3,-1 -5,-1 -3,0 -5,1 -8,3 -3,2 -6,5 -9,9l0 44c0,0 0,1 0,1 0,0 -1,0 -1,1 0,0 -1,0 -2,0 0,0 -1,0 -3,0 -1,0 -1,0 -2,0 -1,0 -2,0 -2,0 0,-1 -1,-1 -1,-1 0,0 0,-1 0,-1l0 -38c0,-3 0,-5 -1,-7 0,-2 -1,-4 -2,-6 -1,-1 -2,-3 -4,-4 -2,0 -3,-1 -5,-1 -3,0 -6,1 -8,3 -3,2 -6,5 -9,9l0 44c0,0 0,1 0,1 -1,0 -1,0 -1,1 -1,0 -1,0 -2,0 -1,0 -2,0 -3,0 -1,0 -2,0 -3,0 0,0 -1,0 -1,0 -1,-1 -1,-1 -1,-1 0,0 0,-1 0,-1l0 -63c0,0 0,0 0,-1 0,0 0,0 1,0 0,0 1,-1 1,-1 1,0 2,0 3,0 1,0 2,0 2,0 1,0 1,1 2,1 0,0 0,0 1,0 0,1 0,1 0,1l0 9c3,-4 7,-7 10,-9 3,-2 7,-3 10,-3 3,0 5,1 7,1 2,1 4,2 5,3 2,1 3,2 4,4 1,1 2,3 3,5 2,-3 4,-5 6,-6 2,-2 4,-3 5,-4 2,-1 4,-2 5,-2 2,-1 4,-1 5,-1 4,0 8,1 10,2 3,2 5,4 7,6 2,2 3,5 3,8 1,4 2,7 2,10l0 40z"/>
  <polygon class="fil0" points="9,89 9,1 21,1 21,89 "/>
  <path id="1" class="fil0" d="M36 70l11 -1c0,4 2,7 5,9 2,3 6,4 11,4 5,0 9,-1 11,-3 3,-2 4,-4 4,-7 0,-3 -1,-5 -3,-6 -2,-1 -6,-2 -11,-4 -8,-2 -14,-3 -17,-5 -3,-1 -5,-3 -7,-6 -1,-2 -2,-5 -2,-8 0,-3 0,-6 2,-8 1,-3 3,-5 5,-6 2,-1 4,-3 7,-3 3,-1 6,-2 9,-2 5,0 10,1 13,2 4,2 7,4 9,6 1,3 3,6 3,10l-10 2c-1,-4 -2,-6 -4,-8 -3,-2 -6,-3 -10,-3 -5,0 -9,1 -11,3 -2,1 -3,3 -3,5 0,2 1,3 2,4 0,1 2,2 4,3 1,0 4,1 9,3 8,2 13,3 16,5 3,1 6,3 7,5 2,3 3,6 3,10 0,3 -1,7 -3,10 -2,3 -5,5 -9,7 -4,2 -9,3 -14,3 -8,0 -14,-2 -19,-5 -4,-4 -7,-9 -8,-16z"/>
  <path id="2" class="fil0" d="M97 70l11 -1c1,4 2,7 5,9 3,3 7,4 12,4 5,0 8,-1 11,-3 2,-2 3,-4 3,-7 0,-3 -1,-5 -3,-6 -2,-1 -5,-2 -11,-4 -8,-2 -13,-3 -17,-5 -3,-1 -5,-3 -6,-6 -2,-2 -3,-5 -3,-8 0,-3 1,-6 2,-8 1,-3 3,-5 5,-6 2,-1 4,-3 7,-3 3,-1 6,-2 10,-2 5,0 9,1 13,2 4,2 6,4 8,6 2,3 3,6 4,10l-11 2c0,-4 -2,-6 -4,-8 -2,-2 -5,-3 -10,-3 -5,0 -8,1 -10,3 -2,1 -3,3 -3,5 0,2 0,3 1,4 1,1 2,2 4,3 1,0 4,1 10,3 7,2 13,3 16,5 3,1 5,3 7,5 1,3 2,6 2,10 0,3 -1,7 -3,10 -2,3 -5,5 -9,7 -4,2 -8,3 -13,3 -9,0 -15,-2 -19,-5 -5,-4 -7,-9 -9,-16z"/>
  <path id="3" class="fil0" d="M205 89l0 -9c-5,7 -12,11 -20,11 -4,0 -8,-1 -11,-2 -3,-2 -6,-4 -7,-6 -2,-2 -3,-5 -4,-8 0,-2 0,-5 0,-10l0 -39 11 0 0 35c0,6 0,9 0,11 1,3 2,5 5,7 2,2 4,2 8,2 3,0 6,0 9,-2 3,-2 5,-4 6,-7 1,-3 2,-7 2,-12l0 -34 10 0 0 63 -9 0z"/>
  <path id="4" class="fil0" d="M275 69l11 1c-2,7 -5,12 -10,15 -5,4 -11,6 -18,6 -9,0 -17,-3 -22,-9 -6,-6 -8,-14 -8,-24 0,-11 3,-19 8,-25 6,-6 13,-9 21,-9 9,0 16,3 21,9 6,6 8,14 8,24 0,1 0,2 0,3l-47 0c0,7 2,13 6,16 3,4 8,6 13,6 4,0 7,-1 10,-3 3,-2 5,-6 7,-10zm-36 -18l36 0c-1,-5 -2,-9 -4,-12 -4,-4 -8,-6 -13,-6 -5,0 -10,2 -13,5 -3,3 -5,8 -6,13z"/>
  <path id="5" class="fil0" d="M341 89l0 -8c-4,7 -10,10 -18,10 -5,0 -10,-2 -14,-4 -4,-3 -8,-7 -10,-12 -2,-5 -3,-11 -3,-17 0,-7 1,-12 3,-18 2,-5 5,-9 9,-12 5,-2 9,-4 14,-4 4,0 8,1 11,3 3,1 5,3 7,6l0 -32 11 0 0 88 -10 0zm-34 -31c0,8 1,14 5,18 3,4 7,6 12,6 5,0 9,-2 12,-6 3,-4 5,-10 5,-17 0,-9 -2,-16 -5,-20 -3,-4 -8,-6 -12,-6 -5,0 -9,2 -13,6 -3,4 -4,10 -4,19z"/>
  <path id="6" class="fil0" d="M402 14l0 -13 11 0 0 13 -11 0zm0 75l0 -63 11 0 0 63 -11 0z"/>
  <path id="7" class="fil0" d="M429 89l0 -63 10 0 0 9c5,-7 11,-11 20,-11 4,0 8,1 11,2 3,2 6,4 7,6 2,2 3,5 3,8 1,2 1,5 1,10l0 39 -11 0 0 -38c0,-5 0,-8 -1,-10 -1,-2 -2,-4 -4,-5 -3,-2 -5,-2 -8,-2 -5,0 -9,1 -12,4 -3,3 -5,8 -5,17l0 34 -11 0z"/>
  <path id="8" class="fil0" d="M532 114l0 -88 10 0 0 8c2,-3 5,-6 7,-7 3,-2 7,-3 11,-3 6,0 10,2 14,5 5,2 8,6 10,11 2,5 3,11 3,17 0,7 -1,12 -3,18 -3,5 -6,9 -11,12 -4,2 -9,4 -14,4 -3,0 -7,-1 -9,-3 -3,-1 -6,-3 -7,-5l0 31 -11 0zm10 -56c0,8 1,14 5,18 3,4 7,6 12,6 4,0 8,-2 12,-6 3,-4 5,-10 5,-19 0,-8 -2,-14 -5,-18 -3,-4 -7,-6 -12,-6 -5,0 -9,2 -12,6 -4,5 -5,11 -5,19z"/>
  <path id="9" class="fil0" d="M642 89l0 -9c-5,7 -12,11 -20,11 -4,0 -8,-1 -11,-2 -3,-2 -6,-4 -7,-6 -2,-2 -3,-5 -4,-8 0,-2 0,-5 0,-10l0 -39 11 0 0 35c0,6 0,9 0,11 1,3 2,5 5,7 2,2 5,2 8,2 3,0 6,0 9,-2 3,-2 5,-4 6,-7 1,-3 2,-7 2,-12l0 -34 10 0 0 63 -9 0z"/>
  <path id="10" class="fil0" d="M678 89l-10 0 0 -88 11 0 0 32c5,-6 10,-9 18,-9 3,0 7,1 11,3 3,1 6,3 8,6 3,3 4,7 6,11 1,4 2,8 2,13 0,10 -3,19 -9,25 -5,6 -11,9 -19,9 -7,0 -13,-3 -18,-10l0 8zm0 -32c0,8 1,13 3,17 4,5 8,8 14,8 5,0 9,-2 12,-6 4,-4 5,-10 5,-19 0,-8 -1,-14 -4,-18 -4,-4 -8,-6 -12,-6 -5,0 -9,2 -13,6 -3,4 -5,10 -5,18z"/>
  <polygon id="11" class="fil0" points="736,89 736,1 747,1 747,89 "/>
  <path id="12" class="fil0" d="M764 14l0 -13 11 0 0 13 -11 0zm0 75l0 -63 11 0 0 63 -11 0z"/>
  <path id="13" class="fil0" d="M833 66l10 2c-1,7 -4,12 -8,17 -5,4 -11,6 -18,6 -9,0 -16,-3 -21,-9 -5,-5 -8,-14 -8,-24 0,-7 1,-13 3,-18 3,-5 6,-9 11,-12 5,-2 10,-4 15,-4 7,0 13,2 17,6 4,3 7,8 8,14l-10 2c-1,-4 -3,-7 -5,-10 -3,-2 -6,-3 -10,-3 -5,0 -9,2 -13,6 -3,4 -5,10 -5,18 0,9 2,15 5,19 3,4 8,6 13,6 4,0 8,-1 10,-4 3,-3 5,-7 6,-12z"/>
  <path id="14" class="fil0" d="M887 14l0 -13 11 0 0 13 -11 0zm0 75l0 -63 11 0 0 63 -11 0z"/>
  <path id="15" class="fil0" d="M914 89l0 -63 10 0 0 9c4,-7 11,-11 20,-11 4,0 7,1 11,2 3,2 5,4 7,6 1,2 3,5 3,8 1,2 1,5 1,10l0 39 -11 0 0 -38c0,-5 0,-8 -1,-10 -1,-2 -3,-4 -5,-5 -2,-2 -4,-2 -7,-2 -5,0 -9,1 -12,4 -3,3 -5,8 -5,17l0 34 -11 0z"/>
  <path id="16" class="fil0" d="M1006 80l1 9c-3,1 -5,1 -8,1 -4,0 -7,0 -9,-2 -2,-1 -4,-2 -4,-4 -1,-3 -2,-7 -2,-13l0 -37 -8 0 0 -8 8 0 0 -16 11 -7 0 23 11 0 0 8 -11 0 0 37c0,3 0,5 1,6 0,1 1,2 1,2 1,1 3,1 4,1 1,0 3,0 5,0z"/>
  <path id="17" class="fil0" d="M1060 69l11 1c-2,7 -5,12 -10,15 -4,4 -10,6 -18,6 -9,0 -16,-3 -22,-9 -5,-6 -8,-14 -8,-24 0,-11 3,-19 8,-25 6,-6 13,-9 22,-9 8,0 15,3 20,9 6,6 9,14 9,24 0,1 -1,2 -1,3l-47 0c0,7 2,13 6,16 3,4 8,6 13,6 4,0 8,-1 10,-3 3,-2 5,-6 7,-10zm-35 -18l35 0c0,-5 -2,-9 -4,-12 -3,-4 -8,-6 -13,-6 -5,0 -9,2 -13,5 -3,3 -5,8 -5,13z"/>
  <path id="18" class="fil0" d="M1085 89l0 -63 9 0 0 9c3,-4 5,-7 7,-9 2,-1 5,-2 7,-2 4,0 8,1 11,4l-4 10c-2,-2 -5,-3 -7,-3 -3,0 -5,1 -7,3 -2,1 -3,3 -4,6 -1,3 -2,8 -2,12l0 33 -10 0z"/>
  <path id="19" class="fil0" d="M1169 69l11 1c-1,7 -5,12 -9,15 -5,4 -11,6 -19,6 -9,0 -16,-3 -22,-9 -5,-6 -8,-14 -8,-24 0,-11 3,-19 8,-25 6,-6 13,-9 22,-9 8,0 15,3 21,9 5,6 8,14 8,24 0,1 0,2 0,3l-48 0c1,7 3,13 6,16 4,4 8,6 13,6 4,0 8,-1 11,-3 2,-2 5,-6 6,-10zm-35 -18l35 0c0,-5 -2,-9 -4,-12 -3,-4 -8,-6 -13,-6 -5,0 -9,2 -13,5 -3,3 -5,8 -5,13z"/>
  <path id="20" class="fil0" d="M1190 70l10 -1c1,4 3,7 5,9 3,3 7,4 12,4 5,0 9,-1 11,-3 2,-2 4,-4 4,-7 0,-3 -2,-5 -4,-6 -1,-1 -5,-2 -11,-4 -8,-2 -13,-3 -16,-5 -3,-1 -6,-3 -7,-6 -2,-2 -2,-5 -2,-8 0,-3 0,-6 1,-8 2,-3 4,-5 6,-6 1,-1 4,-3 7,-3 3,-1 6,-2 9,-2 5,0 9,1 13,2 4,2 7,4 8,6 2,3 3,6 4,10l-10 2c-1,-4 -2,-6 -5,-8 -2,-2 -5,-3 -9,-3 -5,0 -9,1 -11,3 -2,1 -3,3 -3,5 0,2 0,3 1,4 1,1 3,2 4,3 2,0 5,1 10,3 8,2 13,3 16,5 3,1 5,3 7,5 2,3 3,6 3,10 0,3 -1,7 -4,10 -2,3 -5,5 -9,7 -4,2 -8,3 -13,3 -8,0 -15,-2 -19,-5 -4,-4 -7,-9 -8,-16z"/>
  <path id="21" class="fil0" d="M1279 80l1 9c-3,1 -5,1 -8,1 -4,0 -7,0 -9,-2 -2,-1 -4,-2 -4,-4 -1,-3 -2,-7 -2,-13l0 -37 -8 0 0 -8 8 0 0 -16 11 -7 0 23 11 0 0 8 -11 0 0 37c0,3 0,5 1,6 0,1 1,2 1,2 1,1 3,1 4,1 1,0 3,0 5,0z"/>
  <path id="22" class="fil0" d="M1334 89l-10 0 0 -88 10 0 0 32c5,-6 11,-9 18,-9 4,0 7,1 11,3 3,1 6,3 9,6 2,3 4,7 5,11 1,4 2,8 2,13 0,10 -3,19 -8,25 -6,6 -12,9 -20,9 -7,0 -13,-3 -17,-10l0 8zm-1 -32c0,8 2,13 4,17 3,5 8,8 13,8 5,0 9,-2 13,-6 3,-4 5,-10 5,-19 0,-8 -2,-14 -5,-18 -3,-4 -7,-6 -12,-6 -5,0 -9,2 -12,6 -4,4 -6,10 -6,18z"/>
  <path id="23" class="fil0" d="M1391 114l-1 -10c3,1 5,1 6,1 3,0 5,-1 6,-1 2,-1 3,-2 4,-4 0,-1 2,-3 3,-8 0,0 1,-1 1,-2l-24 -64 11 0 14 36c1,5 3,10 4,15 2,-5 3,-9 5,-14l13 -37 11 0 -24 65c-3,6 -5,11 -6,14 -2,3 -4,6 -7,8 -2,1 -5,2 -9,2 -2,0 -4,0 -7,-1z"/>
  <path id="24" class="fil0" d="M1551 59l12 3c-2,9 -7,16 -13,21 -6,5 -14,8 -23,8 -10,0 -17,-2 -23,-6 -6,-4 -11,-9 -14,-17 -3,-7 -4,-15 -4,-23 0,-9 1,-17 5,-24 3,-7 8,-12 15,-16 6,-3 13,-5 21,-5 9,0 16,2 22,7 6,4 10,10 13,19l-12 2c-2,-6 -5,-11 -9,-14 -4,-3 -8,-4 -14,-4 -7,0 -13,2 -17,5 -5,3 -8,7 -10,13 -2,5 -2,11 -2,17 0,7 1,14 3,19 2,6 5,10 10,13 5,3 9,4 15,4 6,0 12,-2 16,-6 5,-3 8,-9 9,-16z"/>
  <path id="25" class="fil0" d="M1576 14l0 -13 11 0 0 13 -11 0zm0 75l0 -63 11 0 0 63 -11 0z"/>
  <path id="26" class="fil0" d="M1603 114l0 -88 10 0 0 8c3,-3 5,-6 8,-7 3,-2 7,-3 11,-3 5,0 10,2 14,5 4,2 7,6 10,11 2,5 3,11 3,17 0,7 -1,12 -4,18 -2,5 -6,9 -10,12 -4,2 -9,4 -14,4 -4,0 -7,-1 -10,-3 -3,-1 -5,-3 -7,-5l0 31 -11 0zm10 -56c0,8 2,14 5,18 4,4 8,6 12,6 5,0 9,-2 13,-6 3,-4 5,-10 5,-19 0,-8 -2,-14 -5,-18 -4,-4 -8,-6 -12,-6 -5,0 -9,2 -12,6 -4,5 -6,11 -6,19z"/>
  <polygon id="27" class="fil0" points="1672,89 1672,1 1682,1 1682,89 "/>
  <path id="28" class="fil0" d="M1741 81c-4,4 -8,6 -12,8 -4,1 -8,2 -12,2 -7,0 -12,-2 -16,-5 -4,-4 -6,-8 -6,-13 0,-4 1,-6 2,-9 2,-3 4,-5 6,-6 2,-2 5,-3 8,-4 2,0 5,-1 9,-1 9,-1 16,-3 20,-4 0,-1 0,-2 0,-3 0,-4 -1,-7 -3,-9 -3,-3 -7,-4 -13,-4 -5,0 -8,1 -11,3 -2,2 -4,5 -5,9l-11 -1c1,-5 3,-8 5,-11 2,-3 5,-5 10,-6 4,-2 9,-3 14,-3 5,0 10,1 13,2 4,2 6,3 8,5 1,2 3,4 3,7 1,2 1,6 1,10l0 15c0,10 0,16 0,19 1,2 2,5 3,7l-11 0c-1,-2 -2,-5 -2,-8zm-1 -24c-4,2 -10,3 -18,5 -4,0 -7,1 -9,2 -2,0 -4,2 -5,3 -1,2 -1,3 -1,5 0,3 1,6 3,7 2,2 6,3 10,3 4,0 8,-1 11,-2 3,-2 5,-5 7,-8 1,-2 2,-6 2,-11l0 -4z"/>
 </g>
</svg>
