<?xml version="1.0" encoding="UTF-8"?>
<!DOCTYPE svg PUBLIC "-//W3C//DTD SVG 1.1//EN" "http://www.w3.org/Graphics/SVG/1.1/DTD/svg11.dtd">
<!-- Creator: CorelDRAW X7 -->
<svg xmlns="http://www.w3.org/2000/svg" xml:space="preserve" width="35.2364mm" height="19.4104mm" version="1.1" style="shape-rendering:geometricPrecision; text-rendering:geometricPrecision; image-rendering:optimizeQuality; fill-rule:evenodd; clip-rule:evenodd"
viewBox="0 0 1132 623"
 xmlns:xlink="http://www.w3.org/1999/xlink">
 <defs>
  <style type="text/css">
   <![CDATA[
    .fil1 {fill:#E5097F}
    .fil2 {fill:#5F253D}
    .fil0 {fill:#0057A0}
   ]]>
  </style>
 </defs>
 <g id="Layer_x0020_1">
  <metadata id="CorelCorpID_0Corel-Layer"/>
  <g id="_1783193495728">
   <path class="fil0" d="M186 171l44 0 0 -128 -44 0 0 128zm-115 -123c0,0 33,-11 50,19l47 0c0,0 -10,-62 -80,-67 0,0 -62,-4 -83,60 0,0 -18,42 15,83 0,0 22,29 66,31 0,0 36,2 63,-30 0,0 18,-21 19,-39l-47 0c0,0 -13,28 -42,22 0,0 -27,-1 -34,-34 0,0 -4,-32 26,-45zm115 -19l44 0 0 -28 -44 0 0 28zm222 142l44 0 0 -170 -44 0 0 170zm-75 -42c-2,1 -4,2 -6,2 -10,3 -21,-2 -26,-11 -6,-7 -6,-20 0,-27 3,-5 7,-8 12,-10 6,-2 14,-2 19,2 8,3 12,10 14,18 1,11 -5,21 -13,26zm14 -84c-18,-7 -34,-1 -34,-1 -8,2 -17,11 -17,11l0 -12 -44 0 0 161 44 0 0 -46c17,16 32,14 32,14 27,0 44,-20 44,-20 19,-18 19,-42 19,-42 2,-22 -12,-40 -12,-40 -14,-20 -32,-25 -32,-25zm210 78c-6,8 -18,11 -27,8 -9,-3 -16,-11 -18,-21 0,-7 2,-12 5,-17 5,-7 13,-11 21,-11 10,0 20,6 23,16 3,9 2,18 -4,25zm6 -80l0 12c-18,-19 -43,-12 -43,-12 -12,1 -27,14 -27,14 -10,6 -16,18 -16,18 -8,13 -8,30 -8,30 -2,17 9,35 9,35 19,34 54,32 54,32 17,1 31,-13 31,-13l0 12 46 0 0 -128 -46 0z"/>
   <path class="fil1" d="M392 365c0,-11 -2,-21 -6,-30 -4,-10 -9,-18 -16,-25 -7,-8 -15,-13 -24,-17 -10,-4 -19,-6 -29,-6 -11,0 -20,2 -29,6 -10,4 -18,9 -25,17 -7,7 -12,15 -16,25 -4,9 -6,19 -6,30 0,10 2,20 6,30 4,9 9,17 16,25 7,7 15,13 25,17 9,4 18,6 29,6 10,0 19,-2 28,-6 9,-4 17,-10 25,-17 7,-8 12,-16 16,-25 4,-10 6,-20 6,-30zm35 0c0,15 -3,29 -9,42 -5,13 -13,25 -24,35 -10,10 -22,18 -35,24 -8,3 -16,5 -24,6l0 44 69 0 0 37 -69 0 0 70 -37 0 0 -70 -69 0 0 -37 69 0 0 -44c-8,-1 -16,-3 -24,-6 -13,-6 -25,-14 -36,-24 -10,-10 -18,-22 -24,-35 -5,-13 -8,-27 -8,-42 0,-15 3,-29 8,-42 6,-13 14,-25 24,-36 11,-10 23,-18 36,-23 13,-6 28,-8 43,-8 14,0 28,2 42,8 13,5 25,13 35,23 11,11 19,23 24,36 6,13 9,27 9,42z"/>
   <path class="fil0" d="M973 471c-1,-1 -3,-3 -5,-7 -3,-3 -5,-5 -9,-5 -5,-1 -14,6 -26,20 -11,14 -22,29 -31,46 -6,11 -12,25 -19,44 -6,16 -9,25 -9,26 0,7 3,10 8,10 2,0 3,-1 4,-2 6,-9 10,-16 13,-21 3,-5 7,-9 13,-15 5,-5 8,-8 10,-8 0,0 1,0 1,1 0,1 -1,3 -3,7 -12,21 -18,36 -18,44 0,8 4,12 11,12 4,0 8,-3 11,-10 1,-1 1,-2 0,-2 0,0 -1,0 -1,1 -4,2 -6,4 -7,6 -2,1 -3,2 -4,2 -2,0 -2,-2 -2,-5 0,-2 0,-3 0,-5 1,-5 4,-11 10,-20 4,-7 8,-13 12,-18 8,-11 13,-18 13,-22 0,-2 -1,-3 -3,-4 -1,-1 -3,-2 -6,-2 -3,0 -5,-1 -6,-1 -16,16 -28,29 -37,38 -1,1 -2,2 -3,2 0,0 -1,-1 0,-2 2,-14 11,-31 25,-52 8,-13 20,-26 34,-42 7,-7 11,-11 13,-11 1,0 1,0 1,1 0,2 -3,7 -8,13 -3,5 -8,11 -15,17 -5,6 -12,15 -21,26 -10,14 -16,24 -17,28 0,2 0,3 0,3 1,0 2,-1 2,-2 2,-5 9,-14 21,-27 9,-10 19,-20 28,-31 13,-13 19,-24 20,-33zm-57 57l-20 0 -20 0c6,-8 11,-16 14,-21 0,0 -3,-2 -8,-4 -5,-3 -9,-4 -10,-4 -2,0 -3,0 -3,2 0,0 0,1 1,1 0,1 0,1 1,2 0,0 1,1 1,1 0,1 -2,5 -5,11 -4,6 -6,10 -7,12l-7 0 -7 0c-2,0 -3,1 -3,3 0,2 1,3 3,3l10 0c-5,8 -11,18 -16,29 -6,13 -9,23 -9,30 0,10 5,15 13,15 5,0 9,-2 13,-6 8,-10 14,-18 18,-23 3,-4 4,-7 4,-9 0,-1 0,-1 0,-1 -1,0 -3,1 -5,5 -8,11 -15,19 -22,25 -2,2 -4,2 -6,2 -2,0 -3,-1 -3,-5 0,-2 0,-5 0,-7 2,-7 7,-16 14,-29 8,-15 14,-23 18,-25 15,-1 28,-1 39,-1 1,0 2,-1 4,-1 1,-1 2,-2 2,-3 0,-1 -2,-2 -4,-2zm-37 -58c0,6 -7,17 -19,32 -10,12 -21,25 -31,38 -15,17 -23,29 -24,33 0,1 -1,2 -1,2 -1,0 -1,-1 -1,-3 1,-7 17,-30 49,-68 5,-7 9,-12 12,-16 4,-6 6,-10 6,-12 0,-1 0,-2 -1,-2 -2,0 -6,4 -11,11 -42,50 -63,87 -62,110 1,6 3,9 7,9 4,0 7,-2 11,-6 8,-9 15,-18 19,-25 5,-9 8,-12 8,-9 0,1 0,1 -1,2 -2,10 -9,21 -20,33 -5,7 -12,10 -19,10 -10,0 -15,-6 -15,-18 0,-13 5,-30 16,-53 10,-20 21,-39 34,-55 13,-17 22,-25 29,-24 3,0 5,2 8,4 2,4 4,6 6,7zm-87 100c1,-2 1,-3 0,-3 -1,0 -2,1 -3,2 -13,16 -20,25 -21,27 -2,1 -3,2 -5,2 -1,0 -2,-1 -2,-3 0,0 0,-1 1,-2 1,-7 6,-16 14,-28 1,-1 0,-2 -2,-3 -3,-1 -5,-2 -7,-2 -2,0 -4,1 -5,2 -1,4 -5,11 -13,19 -7,8 -14,15 -20,20 -4,2 -5,2 -5,-1 0,-1 0,-3 1,-6 3,-8 11,-18 22,-27 11,-10 19,-14 24,-13 2,1 3,1 4,2 1,1 1,1 1,1 1,0 2,-1 2,-2 0,-2 -1,-3 -2,-4 -4,-5 -7,-8 -10,-8 -10,0 -21,6 -33,18 -11,11 -17,22 -17,33 0,3 1,6 2,9 2,3 5,5 9,5 2,0 7,-4 14,-12 5,-6 10,-11 13,-16 -2,5 -3,9 -3,12 -1,1 -1,2 -1,3 0,5 4,9 10,10 5,1 14,-8 26,-26 3,-4 5,-7 6,-9zm-71 -24c-7,-2 -10,-3 -11,-4 -9,0 -18,6 -27,18 -10,13 -14,24 -12,33 1,9 6,14 15,15 10,1 19,-4 27,-14 5,-6 7,-9 7,-11 0,-1 0,-1 -1,-1 -1,0 -3,2 -7,7 -4,5 -8,9 -13,11 -3,2 -7,4 -11,4 -5,0 -8,-3 -8,-8 0,-2 1,-4 1,-6 4,-15 13,-27 29,-37 2,-2 4,-3 6,-3 1,0 3,1 3,3 0,2 -1,4 -3,6 -2,2 -7,7 -17,14 -7,6 -12,11 -14,17 0,1 0,1 0,2 1,0 2,-1 2,-2 1,-3 6,-6 14,-11 10,-7 17,-11 18,-12 5,-4 8,-9 8,-13 0,-4 -2,-7 -6,-8zm6 -72c0,1 0,2 -1,3 -1,2 -4,6 -10,11 -3,4 -7,7 -11,11 -17,17 -30,32 -40,44 8,0 14,-1 18,-1 1,-1 2,0 4,0 1,0 2,1 2,1 0,2 -9,4 -27,5 -16,20 -23,37 -23,49 0,7 3,11 8,11l0 2c-1,0 -2,0 -3,0 -4,0 -7,-2 -10,-6 -2,-4 -3,-8 -3,-12 0,-10 5,-25 17,-43 -14,0 -35,1 -63,2 -13,14 -24,28 -31,42 0,1 1,1 2,1 1,0 2,0 2,1 0,2 -1,4 -3,8 -3,5 -4,9 -5,10 -1,2 -3,3 -5,3 -6,0 -9,-4 -9,-11 0,-5 10,-23 31,-53l1 -1c-33,1 -56,3 -68,7 -15,4 -23,8 -23,14 0,3 1,6 5,9 3,3 6,5 9,6 1,0 2,1 2,1 0,1 0,2 0,2 -2,0 -3,-1 -5,-1 -2,-1 -3,-2 -3,-2 -3,0 -6,-1 -8,-1 -3,-1 -5,-2 -6,-5 -1,-1 -1,-3 -1,-5 1,-2 1,-5 2,-7 -1,-2 -1,-3 -1,-5 0,-3 2,-7 5,-10 2,-3 4,-5 7,-6 11,-5 30,-8 57,-8 4,0 15,1 33,1l2 0c12,-14 27,-35 47,-62 5,-8 7,-13 7,-16 0,-4 -4,-6 -13,-6 -16,0 -40,6 -73,16 -37,12 -62,24 -75,35 -3,2 -4,4 -4,6 0,3 2,4 6,4 1,1 1,1 1,2 0,1 -1,1 -4,1 -3,-1 -7,-2 -11,-5 -5,-4 -7,-7 -7,-10 0,-5 10,-12 29,-21 19,-8 41,-16 66,-22 26,-7 49,-11 67,-11 23,0 35,7 35,19 0,5 -1,8 -3,12 0,1 -2,4 -6,9 -3,5 -10,12 -19,22 -8,9 -17,19 -26,28 28,1 47,1 59,1 16,-24 31,-44 46,-59 -1,0 -1,-2 -1,-3 0,-2 2,-5 6,-8 3,-3 6,-5 10,-7 2,0 5,1 9,2 4,2 6,4 6,6z"/>
   <path class="fil2" d="M1024 395l22 -10c2,8 6,13 11,17 5,4 12,6 21,6 8,0 14,-2 19,-7 5,-4 7,-10 7,-18 0,-9 -8,-18 -24,-26 -3,-1 -4,-2 -5,-2 -19,-9 -31,-17 -37,-25 -6,-7 -9,-16 -9,-26 0,-14 5,-25 14,-33 9,-9 21,-13 36,-13 12,0 22,2 30,7 9,5 14,12 17,21l-21 11c-3,-6 -7,-10 -10,-12 -4,-2 -9,-4 -14,-4 -7,0 -13,2 -17,6 -5,4 -7,9 -7,15 0,10 10,20 28,28 2,1 3,2 4,2 16,8 27,15 33,22 6,7 10,17 10,27 0,16 -5,29 -15,38 -10,9 -23,14 -40,14 -14,0 -26,-3 -35,-10 -9,-6 -15,-16 -18,-28zm-65 -75l21 -62 21 7 -28 60 -14 -5zm-181 109l0 -174 105 102c3,3 6,6 9,9 3,4 6,7 9,11l0 -115 25 0 0 173 -107 -104c-3,-3 -6,-6 -8,-9 -3,-3 -5,-6 -8,-9l0 116 -25 0zm-123 0l0 -167 93 0 0 23 -66 0 0 42 66 0 0 23 -66 0 0 54 66 0 0 25 -93 0zm-64 -83c-1,-1 -1,-5 -2,-11 0,-4 -1,-8 -1,-12 -1,4 -2,8 -3,12 -2,4 -3,7 -5,11l-43 89 -43 -90c-2,-4 -4,-8 -5,-11 -2,-4 -3,-7 -4,-11 0,4 0,8 0,11 -1,4 -2,8 -3,12l-17 83 -25 0 39 -174 49 105c0,2 2,4 3,8 2,4 4,9 6,15 1,-5 4,-11 7,-19 1,-2 2,-3 2,-4l48 -105 40 174 -25 0 -18 -83zm-591 -84l27 0 31 84c2,5 4,10 5,15 1,4 3,8 4,11 2,-8 5,-17 8,-26 0,-1 1,-1 1,-2l33 -89 35 91c2,4 3,9 5,13 1,5 2,9 4,13 0,-3 1,-7 3,-11 1,-4 3,-9 5,-14l31 -85 26 0 -63 173 -38 -95c-2,-4 -3,-8 -5,-12 -1,-4 -2,-8 -3,-11 -2,4 -3,8 -4,12 -2,4 -3,8 -4,11l-37 95 -64 -173z"/>
  </g>
 </g>
</svg>
